<svg xmlns="http://www.w3.org/2000/svg" xmlns:xlink="http://www.w3.org/1999/xlink" width="500" zoomAndPan="magnify" viewBox="0 0 375 374.999991" height="500" preserveAspectRatio="xMidYMid meet" version="1.0"><defs><clipPath id="3b5d425a04"><path d="M 38 308 L 337 308 L 337 310.9375 L 38 310.9375 Z M 38 308 " clip-rule="nonzero"/></clipPath><clipPath id="c1abb1f4dd"><path d="M 290 124 L 337.5 124 L 337.5 152 L 290 152 Z M 290 124 " clip-rule="nonzero"/></clipPath><clipPath id="a7d764b3fa"><path d="M 37.5 127 L 85 127 L 85 155 L 37.5 155 Z M 37.5 127 " clip-rule="nonzero"/></clipPath><clipPath id="6b933e4b65"><path d="M 121 64.1875 L 145 64.1875 L 145 71 L 121 71 Z M 121 64.1875 " clip-rule="nonzero"/></clipPath></defs><g clip-path="url(#3b5d425a04)"><path fill="#1a3a49" d="M 38.683594 308.128906 L 336.3125 308.128906 L 336.3125 310.902344 L 38.683594 310.902344 Z M 38.683594 308.128906 " fill-opacity="1" fill-rule="nonzero"/></g><path fill="#eae8fe" d="M 282.207031 214.242188 C 280.222656 221.386719 277.457031 228.210938 274.003906 234.605469 L 288.207031 257.195312 L 257.925781 287.5 L 235.882812 273.625 C 229.417969 277.316406 222.492188 280.292969 215.222656 282.460938 L 209.40625 308.019531 L 166.578125 308.019531 L 160.902344 283.070312 C 153.402344 281.023438 146.269531 278.113281 139.601562 274.457031 L 117.769531 288.199219 L 87.484375 257.902344 L 101 236.40625 C 97.214844 229.738281 94.1875 222.585938 92.019531 215.066406 L 66.980469 209.359375 L 66.980469 166.507812 L 91.871094 160.835938 C 93.96875 153.378906 96.914062 146.285156 100.605469 139.660156 L 86.785156 117.671875 L 117.070312 87.371094 L 139.050781 101.214844 C 145.523438 97.613281 152.449219 94.71875 159.71875 92.632812 L 165.589844 66.855469 L 208.410156 66.855469 L 214.28125 92.632812 C 221.382812 94.664062 228.15625 97.480469 234.5 100.96875 L 257.21875 86.671875 L 287.503906 116.972656 L 273.328125 139.53125 C 276.832031 145.808594 279.671875 152.507812 281.753906 159.535156 L 308.015625 165.515625 L 308.015625 208.363281 Z M 282.207031 214.242188 " fill-opacity="1" fill-rule="nonzero"/><path fill="#d7daf4" d="M 265.511719 187.683594 C 265.511719 188.96875 265.480469 190.253906 265.417969 191.539062 C 265.355469 192.824219 265.261719 194.105469 265.132812 195.382812 C 265.007812 196.664062 264.851562 197.9375 264.664062 199.210938 C 264.472656 200.480469 264.253906 201.746094 264.003906 203.007812 C 263.753906 204.269531 263.472656 205.523438 263.160156 206.769531 C 262.847656 208.019531 262.503906 209.257812 262.132812 210.488281 C 261.757812 211.71875 261.355469 212.9375 260.921875 214.148438 C 260.488281 215.359375 260.027344 216.558594 259.535156 217.746094 C 259.042969 218.933594 258.523438 220.109375 257.972656 221.269531 C 257.425781 222.433594 256.847656 223.578125 256.242188 224.714844 C 255.636719 225.847656 255.003906 226.964844 254.34375 228.070312 C 253.683594 229.171875 252.996094 230.257812 252.28125 231.324219 C 251.566406 232.394531 250.828125 233.445312 250.0625 234.476562 C 249.296875 235.511719 248.507812 236.523438 247.691406 237.519531 C 246.875 238.511719 246.035156 239.484375 245.171875 240.4375 C 244.3125 241.390625 243.425781 242.320312 242.515625 243.230469 C 241.609375 244.140625 240.675781 245.023438 239.726562 245.886719 C 238.773438 246.75 237.800781 247.589844 236.808594 248.40625 C 235.8125 249.222656 234.800781 250.011719 233.769531 250.777344 C 232.738281 251.542969 231.6875 252.285156 230.617188 253 C 229.550781 253.714844 228.464844 254.402344 227.363281 255.0625 C 226.261719 255.722656 225.144531 256.355469 224.011719 256.960938 C 222.878906 257.566406 221.730469 258.144531 220.566406 258.695312 C 219.40625 259.246094 218.230469 259.765625 217.046875 260.257812 C 215.859375 260.75 214.660156 261.210938 213.449219 261.644531 C 212.238281 262.078125 211.019531 262.480469 209.789062 262.855469 C 208.5625 263.226562 207.324219 263.570312 206.078125 263.882812 C 204.832031 264.195312 203.578125 264.476562 202.316406 264.726562 C 201.054688 264.980469 199.789062 265.199219 198.519531 265.386719 C 197.25 265.574219 195.972656 265.734375 194.695312 265.859375 C 193.417969 265.984375 192.136719 266.078125 190.851562 266.144531 C 189.570312 266.207031 188.285156 266.238281 187 266.238281 C 185.714844 266.238281 184.429688 266.207031 183.148438 266.144531 C 181.863281 266.078125 180.582031 265.984375 179.304688 265.859375 C 178.023438 265.734375 176.75 265.574219 175.480469 265.386719 C 174.207031 265.199219 172.941406 264.980469 171.683594 264.726562 C 170.421875 264.476562 169.167969 264.195312 167.921875 263.882812 C 166.675781 263.570312 165.4375 263.226562 164.207031 262.855469 C 162.980469 262.480469 161.757812 262.078125 160.550781 261.644531 C 159.339844 261.210938 158.140625 260.75 156.953125 260.257812 C 155.765625 259.765625 154.59375 259.246094 153.429688 258.695312 C 152.269531 258.144531 151.121094 257.566406 149.988281 256.960938 C 148.855469 256.355469 147.738281 255.722656 146.636719 255.0625 C 145.535156 254.402344 144.449219 253.714844 143.378906 253 C 142.3125 252.285156 141.261719 251.542969 140.230469 250.777344 C 139.199219 250.011719 138.183594 249.222656 137.191406 248.40625 C 136.199219 247.589844 135.226562 246.75 134.273438 245.886719 C 133.320312 245.023438 132.390625 244.140625 131.484375 243.230469 C 130.574219 242.320312 129.6875 241.390625 128.824219 240.4375 C 127.960938 239.484375 127.125 238.511719 126.308594 237.519531 C 125.492188 236.523438 124.703125 235.511719 123.9375 234.476562 C 123.171875 233.445312 122.433594 232.394531 121.71875 231.324219 C 121.003906 230.257812 120.316406 229.171875 119.65625 228.070312 C 118.996094 226.964844 118.363281 225.847656 117.757812 224.714844 C 117.152344 223.578125 116.574219 222.433594 116.023438 221.269531 C 115.476562 220.109375 114.957031 218.933594 114.464844 217.746094 C 113.972656 216.558594 113.507812 215.359375 113.078125 214.148438 C 112.644531 212.9375 112.242188 211.71875 111.867188 210.488281 C 111.496094 209.257812 111.152344 208.019531 110.839844 206.769531 C 110.527344 205.523438 110.246094 204.269531 109.996094 203.007812 C 109.746094 201.746094 109.523438 200.480469 109.335938 199.210938 C 109.148438 197.9375 108.992188 196.664062 108.863281 195.382812 C 108.738281 194.105469 108.644531 192.824219 108.582031 191.539062 C 108.519531 190.253906 108.488281 188.96875 108.488281 187.683594 C 108.488281 186.398438 108.519531 185.113281 108.582031 183.828125 C 108.644531 182.546875 108.738281 181.261719 108.863281 179.984375 C 108.992188 178.703125 109.148438 177.429688 109.335938 176.15625 C 109.523438 174.886719 109.746094 173.621094 109.996094 172.359375 C 110.246094 171.097656 110.527344 169.84375 110.839844 168.597656 C 111.152344 167.351562 111.496094 166.109375 111.867188 164.882812 C 112.242188 163.652344 112.644531 162.429688 113.078125 161.21875 C 113.507812 160.007812 113.972656 158.808594 114.464844 157.621094 C 114.957031 156.433594 115.476562 155.261719 116.023438 154.097656 C 116.574219 152.9375 117.152344 151.789062 117.757812 150.652344 C 118.363281 149.519531 118.996094 148.402344 119.65625 147.300781 C 120.316406 146.195312 121.003906 145.109375 121.71875 144.042969 C 122.433594 142.972656 123.171875 141.921875 123.9375 140.890625 C 124.703125 139.855469 125.492188 138.84375 126.308594 137.851562 C 127.125 136.855469 127.960938 135.882812 128.824219 134.929688 C 129.6875 133.976562 130.574219 133.046875 131.484375 132.136719 C 132.390625 131.230469 133.320312 130.34375 134.273438 129.480469 C 135.226562 128.617188 136.199219 127.777344 137.191406 126.960938 C 138.183594 126.144531 139.199219 125.355469 140.230469 124.589844 C 141.261719 123.824219 142.3125 123.082031 143.378906 122.367188 C 144.449219 121.65625 145.535156 120.96875 146.636719 120.304688 C 147.738281 119.644531 148.855469 119.011719 149.988281 118.40625 C 151.121094 117.800781 152.269531 117.222656 153.429688 116.671875 C 154.59375 116.121094 155.765625 115.601562 156.953125 115.109375 C 158.140625 114.617188 159.339844 114.15625 160.550781 113.722656 C 161.757812 113.289062 162.980469 112.886719 164.207031 112.511719 C 165.4375 112.140625 166.675781 111.796875 167.921875 111.484375 C 169.167969 111.171875 170.421875 110.890625 171.683594 110.640625 C 172.941406 110.390625 174.207031 110.167969 175.480469 109.980469 C 176.75 109.792969 178.023438 109.632812 179.304688 109.507812 C 180.582031 109.382812 181.863281 109.289062 183.148438 109.226562 C 184.429688 109.160156 185.714844 109.128906 187 109.128906 C 188.285156 109.128906 189.570312 109.160156 190.851562 109.226562 C 192.136719 109.289062 193.417969 109.382812 194.695312 109.507812 C 195.972656 109.632812 197.25 109.792969 198.519531 109.980469 C 199.789062 110.167969 201.054688 110.390625 202.316406 110.640625 C 203.578125 110.890625 204.832031 111.171875 206.078125 111.484375 C 207.324219 111.796875 208.5625 112.140625 209.789062 112.511719 C 211.019531 112.886719 212.238281 113.289062 213.449219 113.722656 C 214.660156 114.15625 215.859375 114.617188 217.046875 115.109375 C 218.230469 115.601562 219.40625 116.121094 220.566406 116.671875 C 221.730469 117.222656 222.878906 117.800781 224.011719 118.40625 C 225.144531 119.011719 226.261719 119.644531 227.363281 120.304688 C 228.464844 120.96875 229.550781 121.65625 230.617188 122.367188 C 231.6875 123.082031 232.738281 123.824219 233.769531 124.589844 C 234.800781 125.355469 235.8125 126.144531 236.808594 126.960938 C 237.800781 127.777344 238.773438 128.617188 239.726562 129.480469 C 240.675781 130.34375 241.609375 131.230469 242.515625 132.136719 C 243.425781 133.046875 244.3125 133.976562 245.171875 134.929688 C 246.035156 135.882812 246.875 136.855469 247.691406 137.851562 C 248.507812 138.84375 249.296875 139.855469 250.0625 140.890625 C 250.828125 141.921875 251.566406 142.972656 252.28125 144.042969 C 252.996094 145.109375 253.683594 146.195312 254.34375 147.300781 C 255.003906 148.402344 255.636719 149.519531 256.242188 150.652344 C 256.847656 151.789062 257.425781 152.9375 257.972656 154.097656 C 258.523438 155.261719 259.042969 156.433594 259.535156 157.621094 C 260.027344 158.808594 260.488281 160.007812 260.921875 161.21875 C 261.355469 162.429688 261.757812 163.652344 262.132812 164.882812 C 262.503906 166.109375 262.847656 167.351562 263.160156 168.597656 C 263.472656 169.84375 263.753906 171.097656 264.003906 172.359375 C 264.253906 173.621094 264.472656 174.886719 264.664062 176.15625 C 264.851562 177.429688 265.007812 178.703125 265.132812 179.984375 C 265.261719 181.261719 265.355469 182.546875 265.417969 183.828125 C 265.480469 185.113281 265.511719 186.398438 265.511719 187.683594 Z M 265.511719 187.683594 " fill-opacity="1" fill-rule="nonzero"/><path fill="#ffffff" d="M 261.558594 187.6875 C 261.558594 218.28125 243.144531 244.570312 216.808594 256.082031 C 207.679688 260.066406 197.597656 262.28125 187.003906 262.28125 C 175.5 262.28125 164.605469 259.671875 154.878906 255.019531 C 129.777344 243.011719 112.441406 217.375 112.441406 187.6875 C 112.441406 146.480469 145.820312 113.085938 187.003906 113.085938 C 228.179688 113.085938 261.558594 146.480469 261.558594 187.6875 Z M 261.558594 187.6875 " fill-opacity="1" fill-rule="nonzero"/><path fill="#fec3bd" d="M 278.9375 188.046875 C 280.898438 186.941406 283.972656 185.558594 284.863281 187.175781 C 286.210938 189.59375 278.71875 193.328125 278.71875 193.328125 C 278.71875 193.328125 285.253906 191.339844 283.347656 194.726562 C 281.4375 198.117188 262.296875 204.167969 262.296875 204.167969 L 257.507812 190.996094 C 257.507812 190.996094 265.179688 179.113281 267.1875 181.3125 C 268.121094 182.332031 266.480469 187.519531 266.480469 187.519531 C 266.480469 187.519531 276.527344 179.382812 278.1875 181.738281 C 279.070312 183.015625 277.144531 184.757812 275.183594 186.101562 C 278.566406 184.195312 283.335938 181.78125 283.828125 182.984375 C 284.351562 184.28125 281.054688 186.675781 278.9375 188.046875 Z M 278.9375 188.046875 " fill-opacity="1" fill-rule="nonzero"/><path fill="#0c8ff9" d="M 199.554688 159.542969 C 199.554688 159.542969 201.082031 203.507812 202.125 205.113281 C 202.796875 206.148438 203.707031 207.351562 204.792969 208.644531 C 210.660156 215.65625 221.675781 225.347656 227.738281 225.648438 C 228.089844 225.664062 228.449219 225.664062 228.828125 225.632812 C 240.75 224.871094 264.160156 203.714844 264.160156 203.714844 L 257.226562 186.882812 L 231.148438 198.304688 C 222.402344 181.359375 214.3125 162.910156 199.554688 159.542969 Z M 199.554688 159.542969 " fill-opacity="1" fill-rule="nonzero"/><path fill="#0e6bb9" d="M 204.792969 208.644531 C 210.660156 215.65625 221.675781 225.347656 227.738281 225.648438 C 228.089844 225.664062 228.449219 225.664062 228.828125 225.632812 C 216 219.121094 212.476562 178.578125 212.476562 178.578125 C 212.476562 178.578125 207.824219 196.480469 204.792969 208.644531 Z M 204.792969 208.644531 " fill-opacity="1" fill-rule="nonzero"/><path fill="#0c8ff9" d="M 216.808594 256.082031 C 207.679688 260.066406 197.597656 262.28125 187.003906 262.28125 C 175.5 262.28125 164.605469 259.671875 154.878906 255.019531 C 154.945312 251.28125 155.023438 247.511719 155.097656 245.542969 C 155.40625 237.132812 155.6875 226.769531 155.363281 223.066406 C 154.664062 215.007812 151.503906 203.269531 149.742188 192.210938 C 148.136719 182.175781 147.683594 172.695312 151.28125 167.058594 C 154.609375 161.824219 172.035156 158.511719 172.035156 158.511719 L 191.6875 157.339844 C 191.6875 157.339844 205.25 160.347656 208.242188 164.496094 C 214.726562 173.472656 214.222656 208.9375 214.222656 208.9375 C 214.222656 208.9375 215.851562 239.441406 216.808594 256.082031 Z M 216.808594 256.082031 " fill-opacity="1" fill-rule="nonzero"/><path fill="#b94768" d="M 198.019531 121.660156 L 195.953125 121.417969 C 195.96875 121.277344 197.535156 107.15625 190.796875 99.421875 C 187.976562 96.183594 184.042969 94.492188 179.105469 94.390625 L 179.148438 92.308594 C 184.699219 92.425781 189.148438 94.359375 192.367188 98.0625 C 199.710938 106.5 198.089844 121.046875 198.019531 121.660156 Z M 198.019531 121.660156 " fill-opacity="1" fill-rule="nonzero"/><path fill="#fe6081" d="M 202.621094 121.539062 C 202.621094 122.074219 202.566406 122.601562 202.464844 123.125 C 202.359375 123.648438 202.207031 124.15625 202 124.648438 C 201.796875 125.140625 201.546875 125.605469 201.253906 126.050781 C 200.957031 126.492188 200.621094 126.902344 200.242188 127.28125 C 199.867188 127.65625 199.457031 127.992188 199.015625 128.289062 C 198.570312 128.585938 198.101562 128.835938 197.609375 129.039062 C 197.117188 129.242188 196.613281 129.398438 196.089844 129.5 C 195.566406 129.605469 195.039062 129.65625 194.507812 129.65625 C 193.972656 129.65625 193.445312 129.605469 192.921875 129.5 C 192.402344 129.398438 191.894531 129.242188 191.402344 129.039062 C 190.910156 128.835938 190.441406 128.585938 190 128.289062 C 189.554688 127.992188 189.144531 127.65625 188.769531 127.28125 C 188.394531 126.902344 188.054688 126.492188 187.761719 126.050781 C 187.464844 125.605469 187.214844 125.140625 187.011719 124.648438 C 186.808594 124.15625 186.652344 123.648438 186.550781 123.125 C 186.445312 122.601562 186.394531 122.074219 186.394531 121.539062 C 186.394531 121.007812 186.445312 120.480469 186.550781 119.957031 C 186.652344 119.433594 186.808594 118.925781 187.011719 118.433594 C 187.214844 117.941406 187.464844 117.472656 187.761719 117.03125 C 188.054688 116.585938 188.394531 116.175781 188.769531 115.800781 C 189.144531 115.421875 189.554688 115.085938 190 114.792969 C 190.441406 114.496094 190.910156 114.246094 191.402344 114.039062 C 191.894531 113.835938 192.402344 113.683594 192.921875 113.578125 C 193.445312 113.476562 193.972656 113.421875 194.507812 113.421875 C 195.039062 113.421875 195.566406 113.476562 196.089844 113.578125 C 196.613281 113.683594 197.117188 113.835938 197.609375 114.039062 C 198.101562 114.246094 198.570312 114.496094 199.015625 114.792969 C 199.457031 115.085938 199.867188 115.421875 200.242188 115.800781 C 200.621094 116.175781 200.957031 116.585938 201.253906 117.03125 C 201.546875 117.472656 201.796875 117.941406 202 118.433594 C 202.207031 118.925781 202.359375 119.433594 202.464844 119.957031 C 202.566406 120.480469 202.621094 121.007812 202.621094 121.539062 Z M 202.621094 121.539062 " fill-opacity="1" fill-rule="nonzero"/><path fill="#06112d" d="M 198.386719 101.816406 C 198.386719 101.816406 201.921875 114.589844 194.371094 120.140625 C 188.488281 124.460938 186.46875 112.035156 185.867188 106.332031 C 185.753906 105.277344 186.945312 104.59375 187.800781 105.21875 L 193.570312 109.4375 " fill-opacity="1" fill-rule="nonzero"/><path fill="#fec3bd" d="M 168.972656 134.386719 C 170.339844 138.667969 171.734375 152.511719 172.035156 158.507812 C 172.042969 158.765625 179.324219 167.101562 187.519531 167.457031 C 192.144531 167.652344 192.363281 157.636719 192.320312 157.488281 C 192.28125 157.359375 192.078125 154.53125 191.867188 151.214844 C 191.648438 147.699219 191.425781 143.636719 191.414062 141.691406 C 191.398438 141.117188 191.40625 140.726562 191.441406 140.597656 C 191.609375 139.96875 191.246094 139.324219 190.625 139.128906 L 170.5 132.851562 C 169.554688 132.554688 168.671875 133.441406 168.972656 134.386719 Z M 168.972656 134.386719 " fill-opacity="1" fill-rule="nonzero"/><path fill="#f18b89" d="M 176.042969 144.898438 C 178.054688 147.859375 189.339844 150.847656 191.867188 151.214844 C 191.648438 147.699219 191.425781 143.636719 191.414062 141.691406 C 190.503906 141.40625 189.816406 141.195312 189.816406 141.195312 C 189.816406 141.195312 173.046875 140.484375 176.042969 144.898438 Z M 176.042969 144.898438 " fill-opacity="1" fill-rule="nonzero"/><path fill="#fec3bd" d="M 193.492188 148.21875 C 182.726562 152.164062 171.902344 141.921875 168.800781 137.535156 L 168.796875 137.53125 C 168.25 136.753906 167.871094 136.144531 167.671875 135.8125 C 167.5625 135.625 167.410156 135.476562 167.21875 135.375 C 165.710938 134.546875 158.855469 130.507812 160.113281 126.28125 C 160.9375 123.53125 162.71875 123.054688 164.066406 123.144531 C 164.859375 123.195312 165.480469 122.445312 165.308594 121.671875 C 160.5625 100.59375 184.125 99.449219 191.433594 108.503906 C 191.753906 108.902344 192.09375 109.394531 192.4375 109.972656 C 197.398438 118.207031 205.058594 143.980469 193.492188 148.21875 Z M 193.492188 148.21875 " fill-opacity="1" fill-rule="nonzero"/><path fill="#06112d" d="M 197.550781 110.617188 C 195.601562 119.984375 171.929688 109.808594 173.238281 113.8125 C 174.203125 116.773438 171.472656 118.070312 169.980469 118.542969 C 169.449219 118.710938 169.109375 119.222656 169.140625 119.777344 L 169.5 125.90625 C 169.535156 126.507812 169.128906 127.042969 168.542969 127.171875 C 167.984375 127.296875 167.417969 127.015625 167.175781 126.5 L 166.007812 124.015625 C 165.863281 123.710938 165.601562 123.472656 165.277344 123.371094 C 164.101562 123.007812 161.230469 122.554688 160.113281 126.28125 C 158.855469 130.507812 165.710938 134.546875 167.21875 135.375 C 167.410156 135.476562 167.5625 135.625 167.671875 135.8125 C 167.871094 136.144531 168.25 136.753906 168.796875 137.53125 L 168.800781 137.535156 L 169.96875 139.023438 C 170.367188 140.152344 171.464844 151.144531 171.464844 151.144531 C 171.464844 151.144531 152.125 129.96875 152.136719 118.710938 C 152.152344 103.128906 160.914062 109.730469 161.625 103.636719 C 162.332031 97.539062 171.429688 94.34375 177.617188 95.042969 C 183.800781 95.746094 194.15625 95.402344 196.890625 98.230469 C 199.304688 100.71875 198.511719 106.003906 197.550781 110.617188 Z M 197.550781 110.617188 " fill-opacity="1" fill-rule="nonzero"/><path fill="#06112d" d="M 183.390625 126.058594 C 183.425781 126.328125 183.425781 126.585938 183.390625 126.84375 C 183.355469 127.097656 183.289062 127.328125 183.1875 127.535156 C 183.085938 127.742188 182.960938 127.90625 182.8125 128.03125 C 182.660156 128.15625 182.496094 128.230469 182.320312 128.253906 C 182.140625 128.277344 181.960938 128.25 181.785156 128.167969 C 181.605469 128.089844 181.441406 127.960938 181.289062 127.789062 C 181.140625 127.617188 181.011719 127.414062 180.914062 127.175781 C 180.8125 126.9375 180.742188 126.6875 180.707031 126.421875 C 180.671875 126.152344 180.671875 125.890625 180.707031 125.636719 C 180.738281 125.378906 180.808594 125.148438 180.910156 124.945312 C 181.007812 124.738281 181.132812 124.574219 181.285156 124.449219 C 181.433594 124.324219 181.597656 124.25 181.777344 124.226562 C 181.957031 124.203125 182.132812 124.230469 182.3125 124.3125 C 182.488281 124.390625 182.652344 124.515625 182.804688 124.6875 C 182.957031 124.859375 183.082031 125.066406 183.183594 125.300781 C 183.285156 125.539062 183.351562 125.792969 183.390625 126.058594 Z M 183.390625 126.058594 " fill-opacity="1" fill-rule="nonzero"/><path fill="#06112d" d="M 179.703125 123.390625 C 179.609375 123.390625 179.519531 123.355469 179.449219 123.285156 C 179.320312 123.144531 179.324219 122.925781 179.464844 122.792969 C 181.882812 120.488281 183.636719 121.765625 183.710938 121.824219 C 183.863281 121.9375 183.894531 122.15625 183.777344 122.308594 C 183.664062 122.460938 183.449219 122.492188 183.296875 122.378906 C 183.234375 122.332031 181.910156 121.421875 179.941406 123.296875 C 179.875 123.359375 179.789062 123.390625 179.703125 123.390625 Z M 179.703125 123.390625 " fill-opacity="1" fill-rule="nonzero"/><path fill="#06112d" d="M 194.785156 125.054688 C 194.820312 125.320312 194.820312 125.582031 194.785156 125.839844 C 194.75 126.09375 194.683594 126.324219 194.582031 126.53125 C 194.484375 126.738281 194.355469 126.902344 194.207031 127.027344 C 194.054688 127.148438 193.890625 127.222656 193.714844 127.25 C 193.535156 127.273438 193.359375 127.246094 193.179688 127.164062 C 193.003906 127.085938 192.835938 126.957031 192.6875 126.785156 C 192.535156 126.613281 192.410156 126.410156 192.308594 126.171875 C 192.207031 125.933594 192.136719 125.683594 192.101562 125.414062 C 192.066406 125.148438 192.066406 124.886719 192.101562 124.632812 C 192.136719 124.375 192.203125 124.144531 192.304688 123.9375 C 192.402344 123.734375 192.53125 123.566406 192.679688 123.445312 C 192.832031 123.320312 192.996094 123.246094 193.171875 123.222656 C 193.351562 123.199219 193.527344 123.226562 193.707031 123.304688 C 193.886719 123.386719 194.050781 123.511719 194.199219 123.683594 C 194.351562 123.855469 194.476562 124.058594 194.578125 124.296875 C 194.679688 124.535156 194.75 124.789062 194.785156 125.054688 Z M 194.785156 125.054688 " fill-opacity="1" fill-rule="nonzero"/><path fill="#06112d" d="M 191.097656 122.386719 C 191.003906 122.386719 190.914062 122.351562 190.847656 122.28125 C 190.714844 122.140625 190.71875 121.921875 190.859375 121.789062 C 193.277344 119.484375 195.035156 120.761719 195.105469 120.820312 C 195.257812 120.933594 195.289062 121.152344 195.175781 121.304688 C 195.058594 121.457031 194.84375 121.488281 194.691406 121.375 C 194.628906 121.328125 193.304688 120.417969 191.335938 122.292969 C 191.269531 122.355469 191.183594 122.386719 191.097656 122.386719 Z M 191.097656 122.386719 " fill-opacity="1" fill-rule="nonzero"/><path fill="#f18b89" d="M 190.960938 136.09375 C 190.878906 136.09375 190.792969 136.0625 190.726562 136 C 190.585938 135.867188 190.578125 135.648438 190.710938 135.507812 C 191.070312 135.128906 191.25 134.648438 191.222656 134.160156 C 191.195312 133.679688 190.96875 133.238281 190.585938 132.917969 C 190.417969 132.777344 190.21875 132.652344 190.011719 132.519531 C 189.875 132.433594 189.738281 132.34375 189.605469 132.25 C 188.683594 131.597656 188.015625 130.625 187.675781 129.4375 C 187.378906 128.398438 187.347656 127.332031 187.320312 126.300781 C 187.316406 126.109375 187.464844 125.949219 187.65625 125.945312 C 187.660156 125.945312 187.664062 125.945312 187.667969 125.945312 C 187.855469 125.945312 188.007812 126.09375 188.011719 126.28125 C 188.039062 127.269531 188.066406 128.292969 188.339844 129.246094 C 188.636719 130.28125 189.214844 131.125 190.007812 131.683594 C 190.128906 131.773438 190.257812 131.851562 190.382812 131.933594 C 190.601562 132.074219 190.828125 132.214844 191.03125 132.386719 C 191.5625 132.832031 191.875 133.449219 191.914062 134.117188 C 191.953125 134.800781 191.707031 135.464844 191.214844 135.984375 C 191.144531 136.058594 191.054688 136.09375 190.960938 136.09375 Z M 190.960938 136.09375 " fill-opacity="1" fill-rule="nonzero"/><path fill="#f18b89" d="M 187.679688 142.007812 C 186.09375 142.007812 184.507812 141.269531 183.511719 140.03125 C 183.390625 139.882812 183.414062 139.664062 183.5625 139.542969 C 183.710938 139.425781 183.929688 139.445312 184.050781 139.597656 C 185.03125 140.816406 186.664062 141.480469 188.21875 141.28125 C 188.40625 141.257812 188.582031 141.394531 188.605469 141.582031 C 188.628906 141.773438 188.496094 141.945312 188.304688 141.96875 C 188.097656 141.996094 187.890625 142.007812 187.679688 142.007812 Z M 187.679688 142.007812 " fill-opacity="1" fill-rule="nonzero"/><path fill="#0e6bb9" d="M 208.238281 224.257812 L 204.664062 243.539062 L 186.457031 244.269531 L 155.097656 245.542969 C 155.40625 237.132812 155.691406 226.765625 155.367188 223.0625 C 154.660156 215.007812 151.507812 203.269531 149.746094 192.214844 L 163.582031 176.105469 C 163.582031 176.105469 167.546875 183.871094 168.925781 189.605469 C 170.308594 195.332031 171.273438 215.089844 171.273438 215.089844 Z M 208.238281 224.257812 " fill-opacity="1" fill-rule="nonzero"/><path fill="#fec3bd" d="M 205.589844 228.195312 C 205.589844 228.195312 217.65625 219.496094 219.683594 220.785156 C 221.683594 222.066406 216.398438 228.378906 216.398438 228.378906 " fill-opacity="1" fill-rule="nonzero"/><path fill="#fec3bd" d="M 216.398438 228.378906 C 217.824219 228.214844 228.421875 227.023438 227.714844 229.679688 C 227.460938 230.644531 225.359375 231.75 224.421875 231.984375 C 227.3125 232.066406 231.414062 232.953125 231.140625 234.273438 C 230.761719 236.113281 227.25 235.925781 226.027344 235.804688 C 227.273438 235.972656 230.839844 236.605469 230.097656 238.328125 C 229.648438 239.375 225.351562 239.683594 224.003906 239.730469 C 224.984375 240.050781 228.71875 240.90625 227.035156 242.628906 C 224.871094 244.851562 203.523438 241.632812 203.523438 241.632812 L 205.589844 228.195312 " fill-opacity="1" fill-rule="nonzero"/><path fill="#0c8ff9" d="M 145.519531 235.304688 C 152.421875 242.152344 204.667969 243.535156 204.667969 243.535156 L 208.238281 224.257812 L 167.605469 216.683594 C 167.605469 216.683594 167.976562 190.230469 165.859375 181.820312 C 162.777344 169.570312 151.277344 167.054688 151.277344 167.054688 C 150.339844 168.140625 145.742188 173.355469 144.082031 179.921875 C 139.570312 197.78125 138.691406 228.535156 145.519531 235.304688 Z M 145.519531 235.304688 " fill-opacity="1" fill-rule="nonzero"/><path fill="#b94768" d="M 170.808594 143.515625 C 169.644531 143.515625 168.515625 142.9375 167.847656 141.9375 L 164.535156 136.980469 L 165.691406 136.207031 L 169 141.167969 C 169.527344 141.957031 170.527344 142.3125 171.429688 142.035156 L 178.289062 139.917969 L 178.695312 141.246094 L 171.839844 143.359375 C 171.5 143.464844 171.152344 143.515625 170.808594 143.515625 Z M 170.808594 143.515625 " fill-opacity="1" fill-rule="nonzero"/><path fill="#fe6081" d="M 173.121094 130.730469 C 173.121094 131.265625 173.066406 131.792969 172.964844 132.316406 C 172.859375 132.835938 172.707031 133.34375 172.503906 133.835938 C 172.296875 134.328125 172.046875 134.796875 171.753906 135.242188 C 171.457031 135.683594 171.121094 136.09375 170.742188 136.472656 C 170.367188 136.847656 169.957031 137.183594 169.515625 137.480469 C 169.070312 137.777344 168.605469 138.027344 168.113281 138.230469 C 167.621094 138.433594 167.113281 138.589844 166.589844 138.691406 C 166.066406 138.796875 165.539062 138.847656 165.007812 138.847656 C 164.472656 138.847656 163.945312 138.796875 163.425781 138.691406 C 162.902344 138.589844 162.394531 138.433594 161.902344 138.230469 C 161.410156 138.027344 160.941406 137.777344 160.5 137.480469 C 160.054688 137.183594 159.648438 136.847656 159.269531 136.472656 C 158.894531 136.09375 158.558594 135.683594 158.261719 135.242188 C 157.964844 134.796875 157.714844 134.328125 157.511719 133.835938 C 157.308594 133.34375 157.152344 132.835938 157.050781 132.316406 C 156.945312 131.792969 156.894531 131.265625 156.894531 130.730469 C 156.894531 130.199219 156.945312 129.671875 157.050781 129.148438 C 157.152344 128.625 157.308594 128.117188 157.511719 127.625 C 157.714844 127.132812 157.964844 126.664062 158.261719 126.222656 C 158.558594 125.777344 158.894531 125.367188 159.269531 124.992188 C 159.648438 124.613281 160.054688 124.277344 160.5 123.980469 C 160.941406 123.683594 161.410156 123.433594 161.902344 123.230469 C 162.394531 123.027344 162.902344 122.875 163.425781 122.769531 C 163.945312 122.664062 164.472656 122.613281 165.007812 122.613281 C 165.539062 122.613281 166.066406 122.664062 166.589844 122.769531 C 167.113281 122.875 167.621094 123.027344 168.113281 123.230469 C 168.605469 123.433594 169.070312 123.683594 169.515625 123.980469 C 169.957031 124.277344 170.367188 124.613281 170.742188 124.992188 C 171.121094 125.367188 171.457031 125.777344 171.753906 126.222656 C 172.046875 126.664062 172.296875 127.132812 172.503906 127.625 C 172.707031 128.117188 172.859375 128.625 172.964844 129.148438 C 173.066406 129.671875 173.121094 130.199219 173.121094 130.730469 Z M 173.121094 130.730469 " fill-opacity="1" fill-rule="nonzero"/><path fill="#b94768" d="M 169.601562 130.730469 C 169.601562 131.03125 169.574219 131.332031 169.515625 131.628906 C 169.457031 131.925781 169.367188 132.210938 169.253906 132.492188 C 169.136719 132.769531 168.996094 133.035156 168.828125 133.285156 C 168.660156 133.535156 168.46875 133.769531 168.257812 133.984375 C 168.042969 134.195312 167.8125 134.386719 167.558594 134.554688 C 167.308594 134.722656 167.042969 134.863281 166.765625 134.980469 C 166.488281 135.09375 166.199219 135.183594 165.902344 135.242188 C 165.609375 135.300781 165.308594 135.328125 165.007812 135.328125 C 164.703125 135.328125 164.40625 135.300781 164.109375 135.242188 C 163.8125 135.183594 163.527344 135.09375 163.246094 134.980469 C 162.96875 134.863281 162.703125 134.722656 162.453125 134.554688 C 162.203125 134.386719 161.96875 134.195312 161.757812 133.984375 C 161.542969 133.769531 161.351562 133.535156 161.183594 133.285156 C 161.015625 133.035156 160.875 132.769531 160.761719 132.492188 C 160.644531 132.210938 160.558594 131.925781 160.5 131.628906 C 160.441406 131.332031 160.410156 131.03125 160.410156 130.730469 C 160.410156 130.429688 160.441406 130.128906 160.5 129.832031 C 160.558594 129.539062 160.644531 129.25 160.761719 128.972656 C 160.875 128.691406 161.015625 128.425781 161.183594 128.175781 C 161.351562 127.925781 161.542969 127.691406 161.757812 127.480469 C 161.96875 127.265625 162.203125 127.074219 162.453125 126.90625 C 162.703125 126.738281 162.96875 126.597656 163.246094 126.480469 C 163.527344 126.367188 163.8125 126.28125 164.109375 126.21875 C 164.40625 126.160156 164.703125 126.132812 165.007812 126.132812 C 165.308594 126.132812 165.609375 126.160156 165.902344 126.21875 C 166.199219 126.28125 166.488281 126.367188 166.765625 126.480469 C 167.042969 126.597656 167.308594 126.738281 167.558594 126.90625 C 167.8125 127.074219 168.042969 127.265625 168.257812 127.480469 C 168.46875 127.691406 168.660156 127.925781 168.828125 128.175781 C 168.996094 128.425781 169.136719 128.691406 169.253906 128.972656 C 169.367188 129.25 169.457031 129.539062 169.515625 129.832031 C 169.574219 130.128906 169.601562 130.429688 169.601562 130.730469 Z M 169.601562 130.730469 " fill-opacity="1" fill-rule="nonzero"/><path fill="#b94768" d="M 163.96875 130.792969 C 163.90625 129.734375 162.523438 104.757812 171.285156 95.644531 C 173.46875 93.371094 176.136719 92.253906 179.148438 92.308594 L 179.105469 94.390625 C 176.609375 94.339844 174.574219 95.222656 172.78125 97.085938 C 164.652344 105.542969 166.03125 130.417969 166.042969 130.667969 Z M 163.96875 130.792969 " fill-opacity="1" fill-rule="nonzero"/><path fill="#b94768" d="M 180.734375 140.582031 C 180.734375 140.878906 180.675781 141.164062 180.5625 141.441406 C 180.449219 141.714844 180.285156 141.957031 180.078125 142.167969 C 179.867188 142.378906 179.625 142.539062 179.351562 142.652344 C 179.074219 142.765625 178.789062 142.824219 178.492188 142.824219 C 178.195312 142.824219 177.910156 142.765625 177.636719 142.652344 C 177.359375 142.539062 177.117188 142.378906 176.90625 142.167969 C 176.699219 141.957031 176.535156 141.714844 176.421875 141.441406 C 176.308594 141.164062 176.253906 140.878906 176.253906 140.582031 C 176.253906 140.285156 176.308594 140 176.421875 139.722656 C 176.535156 139.449219 176.699219 139.207031 176.90625 138.996094 C 177.117188 138.785156 177.359375 138.625 177.636719 138.511719 C 177.910156 138.398438 178.195312 138.339844 178.492188 138.339844 C 178.789062 138.339844 179.074219 138.398438 179.351562 138.511719 C 179.625 138.625 179.867188 138.785156 180.078125 138.996094 C 180.285156 139.207031 180.449219 139.449219 180.5625 139.722656 C 180.675781 140 180.734375 140.285156 180.734375 140.582031 Z M 180.734375 140.582031 " fill-opacity="1" fill-rule="nonzero"/><path fill="#37c092" d="M 308.460938 267.417969 C 308.460938 267.417969 296.339844 264.972656 294.792969 256.996094 C 293.410156 249.839844 305.050781 240.996094 305.050781 240.996094 C 320.761719 258.355469 308.460938 267.417969 308.460938 267.417969 Z M 308.460938 267.417969 " fill-opacity="1" fill-rule="nonzero"/><path fill="#238a6f" d="M 305.550781 256.484375 C 306.742188 258.984375 307.460938 261.679688 308.054688 264.378906 C 308.632812 267.085938 308.960938 269.839844 309.210938 272.59375 L 309.335938 274.664062 L 309.398438 276.738281 C 309.449219 278.121094 309.425781 279.503906 309.390625 280.882812 C 309.351562 282.265625 309.242188 283.644531 309.167969 285.019531 C 309.027344 286.394531 308.890625 287.765625 308.71875 289.136719 C 308.734375 287.753906 308.804688 286.378906 308.832031 285.003906 C 308.835938 283.625 308.882812 282.25 308.859375 280.878906 C 308.820312 278.128906 308.773438 275.382812 308.523438 272.648438 C 308.332031 269.910156 307.996094 267.183594 307.535156 264.476562 C 307.296875 263.128906 307.035156 261.777344 306.699219 260.445312 C 306.394531 259.105469 306.019531 257.78125 305.550781 256.484375 Z M 305.550781 256.484375 " fill-opacity="1" fill-rule="nonzero"/><path fill="#fcc283" d="M 318.335938 286.699219 L 315.234375 308.019531 L 297.058594 308.019531 L 293.953125 286.699219 Z M 318.335938 286.699219 " fill-opacity="1" fill-rule="nonzero"/><path fill="#fe8b70" d="M 317.691406 291.144531 L 318.335938 286.699219 L 293.953125 286.699219 L 294.601562 291.144531 Z M 317.691406 291.144531 " fill-opacity="1" fill-rule="nonzero"/><path fill="#37c092" d="M 307.652344 281.765625 C 307.652344 281.765625 303.859375 265.683594 328.929688 258.464844 C 328.929688 258.464844 332.335938 273.941406 326.191406 279.972656 C 319.34375 286.699219 307.652344 281.765625 307.652344 281.765625 Z M 307.652344 281.765625 " fill-opacity="1" fill-rule="nonzero"/><path fill="#238a6f" d="M 318.335938 272.21875 C 317.597656 272.597656 316.871094 272.980469 316.183594 273.433594 C 315.480469 273.855469 314.800781 274.316406 314.144531 274.808594 C 312.839844 275.789062 311.617188 276.871094 310.539062 278.082031 C 309.429688 279.273438 308.535156 280.640625 307.78125 282.074219 L 307.242188 283.171875 L 306.832031 284.324219 C 306.761719 284.515625 306.675781 284.707031 306.617188 284.902344 L 306.464844 285.5 C 306.367188 285.898438 306.257812 286.296875 306.144531 286.699219 C 306.289062 285.054688 306.578125 283.375 307.300781 281.847656 C 307.964844 280.304688 308.886719 278.863281 310.023438 277.621094 C 311.152344 276.378906 312.433594 275.273438 313.84375 274.371094 C 315.25 273.46875 316.746094 272.703125 318.335938 272.21875 Z M 318.335938 272.21875 " fill-opacity="1" fill-rule="nonzero"/><path fill="#238a6f" d="M 300.164062 272.21875 C 301.277344 272.964844 302.234375 273.953125 303.011719 275.0625 C 303.792969 276.167969 304.414062 277.398438 304.8125 278.703125 C 305.195312 280.007812 305.457031 281.363281 305.414062 282.71875 C 305.453125 283.398438 305.332031 284.070312 305.269531 284.738281 C 305.160156 285.402344 304.988281 286.054688 304.820312 286.699219 C 304.835938 286.023438 304.933594 285.371094 304.929688 284.707031 C 304.914062 284.046875 304.957031 283.390625 304.875 282.738281 C 304.804688 281.433594 304.527344 280.152344 304.152344 278.910156 C 303.785156 277.664062 303.222656 276.480469 302.558594 275.355469 C 301.882812 274.238281 301.101562 273.167969 300.164062 272.21875 Z M 300.164062 272.21875 " fill-opacity="1" fill-rule="nonzero"/><path fill="#37c092" d="M 301.898438 273.90625 C 301.898438 273.90625 298.339844 260.476562 279.433594 262.304688 C 279.433594 262.304688 284.070312 279.273438 290.667969 281.214844 C 298.429688 283.5 301.898438 273.90625 301.898438 273.90625 Z M 301.898438 273.90625 " fill-opacity="1" fill-rule="nonzero"/><g clip-path="url(#c1abb1f4dd)"><path fill="#37c092" d="M 290.667969 124.429688 L 290.667969 145.917969 L 295.460938 145.917969 L 295.460938 151.160156 L 302.621094 145.917969 L 337.441406 145.917969 L 337.441406 124.429688 Z M 290.667969 124.429688 " fill-opacity="1" fill-rule="nonzero"/></g><path fill="#ffffff" d="M 326.355469 135.007812 C 326.355469 135.285156 326.300781 135.550781 326.195312 135.804688 C 326.089844 136.058594 325.941406 136.285156 325.746094 136.480469 C 325.550781 136.671875 325.324219 136.824219 325.070312 136.929688 C 324.816406 137.035156 324.550781 137.089844 324.273438 137.089844 C 324 137.089844 323.734375 137.035156 323.480469 136.929688 C 323.226562 136.824219 323 136.671875 322.804688 136.480469 C 322.609375 136.285156 322.460938 136.058594 322.355469 135.804688 C 322.25 135.550781 322.195312 135.285156 322.195312 135.007812 C 322.195312 134.730469 322.25 134.46875 322.355469 134.210938 C 322.460938 133.957031 322.609375 133.730469 322.804688 133.539062 C 323 133.34375 323.226562 133.191406 323.480469 133.085938 C 323.734375 132.980469 324 132.929688 324.273438 132.929688 C 324.550781 132.929688 324.816406 132.980469 325.070312 133.085938 C 325.324219 133.191406 325.550781 133.34375 325.746094 133.539062 C 325.941406 133.730469 326.089844 133.957031 326.195312 134.210938 C 326.300781 134.46875 326.355469 134.730469 326.355469 135.007812 Z M 326.355469 135.007812 " fill-opacity="1" fill-rule="nonzero"/><path fill="#ffffff" d="M 317.519531 135.007812 C 317.519531 135.285156 317.464844 135.550781 317.359375 135.804688 C 317.253906 136.058594 317.105469 136.285156 316.910156 136.480469 C 316.714844 136.671875 316.492188 136.824219 316.234375 136.929688 C 315.980469 137.035156 315.714844 137.089844 315.441406 137.089844 C 315.164062 137.089844 314.898438 137.035156 314.644531 136.929688 C 314.390625 136.824219 314.164062 136.671875 313.96875 136.480469 C 313.773438 136.285156 313.625 136.058594 313.519531 135.804688 C 313.414062 135.550781 313.359375 135.285156 313.359375 135.007812 C 313.359375 134.730469 313.414062 134.46875 313.519531 134.210938 C 313.625 133.957031 313.773438 133.730469 313.96875 133.539062 C 314.164062 133.34375 314.390625 133.191406 314.644531 133.085938 C 314.898438 132.980469 315.164062 132.929688 315.441406 132.929688 C 315.714844 132.929688 315.980469 132.980469 316.234375 133.085938 C 316.492188 133.191406 316.714844 133.34375 316.910156 133.539062 C 317.105469 133.730469 317.253906 133.957031 317.359375 134.210938 C 317.464844 134.46875 317.519531 134.730469 317.519531 135.007812 Z M 317.519531 135.007812 " fill-opacity="1" fill-rule="nonzero"/><path fill="#ffffff" d="M 308.683594 135.007812 C 308.683594 135.285156 308.632812 135.550781 308.527344 135.804688 C 308.421875 136.058594 308.269531 136.285156 308.074219 136.480469 C 307.878906 136.671875 307.65625 136.824219 307.402344 136.929688 C 307.144531 137.035156 306.878906 137.089844 306.605469 137.089844 C 306.328125 137.089844 306.0625 137.035156 305.808594 136.929688 C 305.554688 136.824219 305.328125 136.671875 305.136719 136.480469 C 304.941406 136.285156 304.789062 136.058594 304.683594 135.804688 C 304.578125 135.550781 304.527344 135.285156 304.527344 135.007812 C 304.527344 134.730469 304.578125 134.46875 304.683594 134.210938 C 304.789062 133.957031 304.941406 133.730469 305.136719 133.539062 C 305.328125 133.34375 305.554688 133.191406 305.808594 133.085938 C 306.0625 132.980469 306.328125 132.929688 306.605469 132.929688 C 306.878906 132.929688 307.144531 132.980469 307.402344 133.085938 C 307.65625 133.191406 307.878906 133.34375 308.074219 133.539062 C 308.269531 133.730469 308.421875 133.957031 308.527344 134.210938 C 308.632812 134.46875 308.683594 134.730469 308.683594 135.007812 Z M 308.683594 135.007812 " fill-opacity="1" fill-rule="nonzero"/><g clip-path="url(#a7d764b3fa)"><path fill="#fe6081" d="M 84.332031 127.789062 L 84.332031 149.273438 L 79.539062 149.273438 L 79.539062 154.515625 L 72.378906 149.273438 L 37.558594 149.273438 L 37.558594 127.789062 Z M 84.332031 127.789062 " fill-opacity="1" fill-rule="nonzero"/></g><path fill="#ffffff" d="M 52.804688 138.363281 C 52.804688 138.640625 52.75 138.90625 52.644531 139.160156 C 52.539062 139.414062 52.390625 139.640625 52.195312 139.835938 C 52 140.03125 51.773438 140.179688 51.519531 140.285156 C 51.265625 140.390625 51 140.445312 50.726562 140.445312 C 50.449219 140.445312 50.183594 140.390625 49.929688 140.285156 C 49.675781 140.179688 49.449219 140.03125 49.253906 139.835938 C 49.058594 139.640625 48.910156 139.414062 48.804688 139.160156 C 48.699219 138.90625 48.644531 138.640625 48.644531 138.363281 C 48.644531 138.089844 48.699219 137.824219 48.804688 137.566406 C 48.910156 137.3125 49.058594 137.089844 49.253906 136.894531 C 49.449219 136.699219 49.675781 136.546875 49.929688 136.441406 C 50.183594 136.335938 50.449219 136.285156 50.726562 136.285156 C 51 136.285156 51.265625 136.335938 51.519531 136.441406 C 51.773438 136.546875 52 136.699219 52.195312 136.894531 C 52.390625 137.089844 52.539062 137.3125 52.644531 137.566406 C 52.75 137.824219 52.804688 138.089844 52.804688 138.363281 Z M 52.804688 138.363281 " fill-opacity="1" fill-rule="nonzero"/><path fill="#ffffff" d="M 61.640625 138.363281 C 61.640625 138.640625 61.585938 138.90625 61.480469 139.160156 C 61.375 139.414062 61.226562 139.640625 61.03125 139.835938 C 60.835938 140.03125 60.609375 140.179688 60.355469 140.285156 C 60.101562 140.390625 59.835938 140.445312 59.558594 140.445312 C 59.285156 140.445312 59.019531 140.390625 58.765625 140.285156 C 58.507812 140.179688 58.285156 140.03125 58.089844 139.835938 C 57.894531 139.640625 57.746094 139.414062 57.640625 139.160156 C 57.535156 138.90625 57.480469 138.640625 57.480469 138.363281 C 57.480469 138.089844 57.535156 137.824219 57.640625 137.566406 C 57.746094 137.3125 57.894531 137.089844 58.089844 136.894531 C 58.285156 136.699219 58.507812 136.546875 58.765625 136.441406 C 59.019531 136.335938 59.285156 136.285156 59.558594 136.285156 C 59.835938 136.285156 60.101562 136.335938 60.355469 136.441406 C 60.609375 136.546875 60.835938 136.699219 61.03125 136.894531 C 61.226562 137.089844 61.375 137.3125 61.480469 137.566406 C 61.585938 137.824219 61.640625 138.089844 61.640625 138.363281 Z M 61.640625 138.363281 " fill-opacity="1" fill-rule="nonzero"/><path fill="#ffffff" d="M 70.472656 138.363281 C 70.472656 138.640625 70.421875 138.90625 70.316406 139.160156 C 70.210938 139.414062 70.058594 139.640625 69.863281 139.835938 C 69.671875 140.03125 69.445312 140.179688 69.191406 140.285156 C 68.9375 140.390625 68.671875 140.445312 68.394531 140.445312 C 68.121094 140.445312 67.855469 140.390625 67.597656 140.285156 C 67.34375 140.179688 67.121094 140.03125 66.925781 139.835938 C 66.730469 139.640625 66.578125 139.414062 66.472656 139.160156 C 66.367188 138.90625 66.316406 138.640625 66.316406 138.363281 C 66.316406 138.089844 66.367188 137.824219 66.472656 137.566406 C 66.578125 137.3125 66.730469 137.089844 66.925781 136.894531 C 67.121094 136.699219 67.34375 136.546875 67.597656 136.441406 C 67.855469 136.335938 68.121094 136.285156 68.394531 136.285156 C 68.671875 136.285156 68.9375 136.335938 69.191406 136.441406 C 69.445312 136.546875 69.671875 136.699219 69.863281 136.894531 C 70.058594 137.089844 70.210938 137.3125 70.316406 137.566406 C 70.421875 137.824219 70.472656 138.089844 70.472656 138.363281 Z M 70.472656 138.363281 " fill-opacity="1" fill-rule="nonzero"/><path fill="#f7b3c2" d="M 68.59375 240.335938 L 54.683594 240.335938 C 53.472656 240.335938 52.488281 239.347656 52.488281 238.136719 L 52.488281 227.527344 C 52.488281 226.304688 53.472656 225.3125 54.683594 225.3125 L 68.59375 225.3125 C 69.804688 225.3125 70.789062 226.304688 70.789062 227.527344 L 70.789062 238.136719 C 70.789062 239.347656 69.804688 240.335938 68.59375 240.335938 Z M 54.683594 226.007812 C 53.855469 226.007812 53.179688 226.6875 53.179688 227.527344 L 53.179688 238.136719 C 53.179688 238.964844 53.855469 239.640625 54.683594 239.640625 L 68.59375 239.640625 C 69.421875 239.640625 70.097656 238.964844 70.097656 238.136719 L 70.097656 227.527344 C 70.097656 226.6875 69.421875 226.007812 68.59375 226.007812 Z M 54.683594 226.007812 " fill-opacity="1" fill-rule="nonzero"/><path fill="#f7b3c2" d="M 61.640625 234.640625 L 52.488281 227.699219 L 52.488281 227.527344 C 52.488281 226.304688 53.480469 225.3125 54.703125 225.3125 L 68.59375 225.3125 C 69.804688 225.3125 70.789062 226.300781 70.789062 227.511719 L 70.789062 227.683594 Z M 53.191406 227.363281 L 61.640625 233.769531 L 70.085938 227.347656 C 70.003906 226.59375 69.367188 226.007812 68.59375 226.007812 L 54.703125 226.007812 C 53.917969 226.007812 53.273438 226.601562 53.191406 227.363281 Z M 53.191406 227.363281 " fill-opacity="1" fill-rule="nonzero"/><path fill="#f9dae0" d="M 242.601562 77.160156 C 242.601562 77.722656 242.546875 78.277344 242.4375 78.824219 C 242.328125 79.375 242.167969 79.910156 241.953125 80.425781 C 241.738281 80.945312 241.476562 81.4375 241.164062 81.902344 C 240.851562 82.367188 240.5 82.800781 240.105469 83.195312 C 239.707031 83.589844 239.277344 83.945312 238.8125 84.257812 C 238.34375 84.566406 237.855469 84.832031 237.335938 85.046875 C 236.820312 85.257812 236.285156 85.421875 235.738281 85.53125 C 235.1875 85.640625 234.632812 85.695312 234.074219 85.695312 C 233.511719 85.695312 232.957031 85.640625 232.410156 85.53125 C 231.859375 85.421875 231.324219 85.257812 230.808594 85.046875 C 230.289062 84.832031 229.800781 84.566406 229.332031 84.257812 C 228.867188 83.945312 228.4375 83.589844 228.042969 83.195312 C 227.644531 82.800781 227.292969 82.367188 226.980469 81.902344 C 226.667969 81.4375 226.40625 80.945312 226.191406 80.425781 C 225.976562 79.910156 225.816406 79.375 225.707031 78.824219 C 225.597656 78.277344 225.542969 77.722656 225.542969 77.160156 C 225.542969 76.601562 225.597656 76.046875 225.707031 75.496094 C 225.816406 74.945312 225.976562 74.414062 226.191406 73.894531 C 226.40625 73.378906 226.667969 72.886719 226.980469 72.417969 C 227.292969 71.953125 227.644531 71.523438 228.042969 71.125 C 228.4375 70.730469 228.867188 70.375 229.332031 70.066406 C 229.800781 69.753906 230.289062 69.492188 230.808594 69.277344 C 231.324219 69.0625 231.859375 68.898438 232.410156 68.789062 C 232.957031 68.679688 233.511719 68.625 234.074219 68.625 C 234.632812 68.625 235.1875 68.679688 235.738281 68.789062 C 236.285156 68.898438 236.820312 69.0625 237.335938 69.277344 C 237.855469 69.492188 238.34375 69.753906 238.8125 70.066406 C 239.277344 70.375 239.707031 70.730469 240.105469 71.125 C 240.5 71.523438 240.851562 71.953125 241.164062 72.417969 C 241.476562 72.886719 241.738281 73.378906 241.953125 73.894531 C 242.167969 74.414062 242.328125 74.945312 242.4375 75.496094 C 242.546875 76.046875 242.601562 76.601562 242.601562 77.160156 Z M 242.601562 77.160156 " fill-opacity="1" fill-rule="nonzero"/><path fill="#ffffff" d="M 235.957031 74.542969 C 235.957031 74.792969 235.910156 75.035156 235.8125 75.265625 C 235.71875 75.496094 235.582031 75.703125 235.40625 75.878906 C 235.230469 76.054688 235.023438 76.191406 234.792969 76.285156 C 234.5625 76.382812 234.324219 76.429688 234.074219 76.429688 C 233.824219 76.429688 233.582031 76.382812 233.351562 76.285156 C 233.121094 76.191406 232.914062 76.054688 232.738281 75.878906 C 232.5625 75.703125 232.425781 75.496094 232.332031 75.265625 C 232.234375 75.035156 232.1875 74.792969 232.1875 74.542969 C 232.1875 74.292969 232.234375 74.054688 232.332031 73.820312 C 232.425781 73.589844 232.5625 73.386719 232.738281 73.210938 C 232.914062 73.035156 233.121094 72.898438 233.351562 72.800781 C 233.582031 72.707031 233.824219 72.65625 234.074219 72.65625 C 234.324219 72.65625 234.5625 72.707031 234.792969 72.800781 C 235.023438 72.898438 235.230469 73.035156 235.40625 73.210938 C 235.582031 73.386719 235.71875 73.589844 235.8125 73.820312 C 235.910156 74.054688 235.957031 74.292969 235.957031 74.542969 Z M 235.957031 74.542969 " fill-opacity="1" fill-rule="nonzero"/><path fill="#ffffff" d="M 238.507812 81.664062 L 229.636719 81.664062 C 229.757812 79.308594 231.695312 77.429688 234.074219 77.429688 C 236.457031 77.429688 238.394531 79.308594 238.507812 81.664062 Z M 238.507812 81.664062 " fill-opacity="1" fill-rule="nonzero"/><g clip-path="url(#6b933e4b65)"><path fill="#f9dae0" d="M 121.746094 70.078125 C 121.570312 70.078125 121.390625 70.011719 121.257812 69.875 C 120.984375 69.601562 120.984375 69.164062 121.257812 68.894531 C 124.3125 65.835938 128.371094 64.152344 132.6875 64.152344 C 137.003906 64.152344 141.058594 65.832031 144.113281 68.882812 C 144.382812 69.15625 144.382812 69.59375 144.113281 69.867188 C 143.839844 70.136719 143.402344 70.136719 143.128906 69.867188 C 140.339844 67.078125 136.632812 65.542969 132.6875 65.542969 C 128.742188 65.542969 125.03125 67.082031 122.238281 69.875 C 122.101562 70.011719 121.925781 70.078125 121.746094 70.078125 Z M 121.746094 70.078125 " fill-opacity="1" fill-rule="nonzero"/></g><path fill="#f9dae0" d="M 124.632812 72.964844 C 124.457031 72.964844 124.277344 72.894531 124.144531 72.761719 C 123.871094 72.488281 123.871094 72.050781 124.144531 71.777344 C 126.425781 69.492188 129.460938 68.234375 132.6875 68.234375 C 135.914062 68.234375 138.945312 69.492188 141.226562 71.773438 C 141.5 72.042969 141.5 72.484375 141.226562 72.753906 C 140.957031 73.023438 140.519531 73.023438 140.246094 72.753906 C 138.226562 70.734375 135.542969 69.625 132.6875 69.625 C 129.832031 69.625 127.144531 70.738281 125.125 72.761719 C 124.988281 72.894531 124.8125 72.964844 124.632812 72.964844 Z M 124.632812 72.964844 " fill-opacity="1" fill-rule="nonzero"/><path fill="#f9dae0" d="M 127.519531 75.847656 C 127.339844 75.847656 127.164062 75.78125 127.027344 75.644531 C 126.757812 75.375 126.757812 74.933594 127.027344 74.664062 C 128.542969 73.148438 130.550781 72.316406 132.6875 72.316406 C 134.824219 72.316406 136.835938 73.148438 138.34375 74.660156 C 138.613281 74.929688 138.613281 75.371094 138.34375 75.640625 C 138.074219 75.914062 137.632812 75.914062 137.363281 75.640625 C 136.113281 74.390625 134.453125 73.703125 132.6875 73.703125 C 130.921875 73.703125 129.261719 74.394531 128.007812 75.644531 C 127.875 75.78125 127.695312 75.847656 127.519531 75.847656 Z M 127.519531 75.847656 " fill-opacity="1" fill-rule="nonzero"/><path fill="#f9dae0" d="M 134.496094 81.019531 C 133.503906 82.023438 131.875 82.023438 130.878906 81.019531 C 129.875 80.023438 129.875 78.394531 130.878906 77.398438 C 131.875 76.394531 133.503906 76.394531 134.496094 77.398438 C 135.5 78.394531 135.5 80.023438 134.496094 81.019531 Z M 134.496094 81.019531 " fill-opacity="1" fill-rule="nonzero"/><path fill="#f9dae0" d="M 332.019531 217.625 C 332.019531 224.21875 324.273438 231.429688 324.273438 231.429688 C 324.273438 231.429688 316.53125 224.21875 316.53125 217.625 C 316.53125 213.347656 320 209.878906 324.273438 209.878906 C 328.550781 209.878906 332.019531 213.347656 332.019531 217.625 Z M 332.019531 217.625 " fill-opacity="1" fill-rule="nonzero"/><path fill="#ffffff" d="M 328.558594 217.625 C 328.558594 217.90625 328.53125 218.1875 328.476562 218.460938 C 328.421875 218.738281 328.339844 219.007812 328.230469 219.265625 C 328.125 219.527344 327.992188 219.773438 327.835938 220.007812 C 327.679688 220.242188 327.503906 220.457031 327.304688 220.65625 C 327.105469 220.855469 326.886719 221.03125 326.65625 221.1875 C 326.421875 221.34375 326.171875 221.476562 325.914062 221.585938 C 325.652344 221.691406 325.386719 221.773438 325.109375 221.828125 C 324.835938 221.882812 324.554688 221.910156 324.273438 221.910156 C 323.992188 221.910156 323.714844 221.882812 323.441406 221.828125 C 323.164062 221.773438 322.894531 221.691406 322.636719 221.585938 C 322.375 221.476562 322.128906 221.34375 321.894531 221.1875 C 321.664062 221.03125 321.445312 220.855469 321.246094 220.65625 C 321.046875 220.457031 320.871094 220.242188 320.714844 220.007812 C 320.558594 219.773438 320.425781 219.527344 320.320312 219.265625 C 320.210938 219.007812 320.128906 218.738281 320.074219 218.460938 C 320.019531 218.1875 319.992188 217.90625 319.992188 217.625 C 319.992188 217.34375 320.019531 217.066406 320.074219 216.789062 C 320.128906 216.515625 320.210938 216.246094 320.320312 215.988281 C 320.425781 215.726562 320.558594 215.480469 320.714844 215.246094 C 320.871094 215.011719 321.046875 214.796875 321.246094 214.597656 C 321.445312 214.398438 321.664062 214.21875 321.894531 214.0625 C 322.128906 213.90625 322.375 213.777344 322.636719 213.667969 C 322.894531 213.558594 323.164062 213.480469 323.441406 213.425781 C 323.714844 213.371094 323.992188 213.34375 324.273438 213.34375 C 324.554688 213.34375 324.835938 213.371094 325.109375 213.425781 C 325.386719 213.480469 325.652344 213.558594 325.914062 213.667969 C 326.171875 213.777344 326.421875 213.90625 326.65625 214.0625 C 326.886719 214.21875 327.105469 214.398438 327.304688 214.597656 C 327.503906 214.796875 327.679688 215.011719 327.835938 215.246094 C 327.992188 215.480469 328.125 215.726562 328.230469 215.988281 C 328.339844 216.246094 328.421875 216.515625 328.476562 216.789062 C 328.53125 217.066406 328.558594 217.34375 328.558594 217.625 Z M 328.558594 217.625 " fill-opacity="1" fill-rule="nonzero"/></svg>