<svg xmlns="http://www.w3.org/2000/svg" xmlns:xlink="http://www.w3.org/1999/xlink" width="500" zoomAndPan="magnify" viewBox="0 0 375 374.999991" height="500" preserveAspectRatio="xMidYMid meet" version="1.0"><defs><clipPath id="388efe379f"><path d="M 1 338 L 374 338 L 374 341.609375 L 1 341.609375 Z M 1 338 " clip-rule="nonzero"/></clipPath><clipPath id="a2136aebd7"><path d="M 104 33.359375 L 134 33.359375 L 134 41 L 104 41 Z M 104 33.359375 " clip-rule="nonzero"/></clipPath></defs><g clip-path="url(#388efe379f)"><path fill="#1a3a49" d="M 1.480469 338.101562 L 373.511719 338.101562 L 373.511719 341.566406 L 1.480469 341.566406 Z M 1.480469 338.101562 " fill-opacity="1" fill-rule="nonzero"/></g><path fill="#eae8fe" d="M 305.886719 220.8125 C 303.402344 229.738281 299.941406 238.265625 295.628906 246.253906 L 313.378906 274.472656 L 275.53125 312.328125 L 247.980469 294.996094 C 239.898438 299.609375 231.242188 303.328125 222.15625 306.03125 L 214.882812 337.964844 L 161.347656 337.964844 L 154.253906 306.796875 C 144.878906 304.238281 135.960938 300.601562 127.628906 296.039062 L 100.335938 313.203125 L 62.480469 275.355469 L 79.375 248.503906 C 74.644531 240.171875 70.859375 231.238281 68.152344 221.84375 L 36.851562 214.714844 L 36.851562 161.179688 L 67.964844 154.097656 C 70.589844 144.78125 74.269531 135.917969 78.882812 127.640625 L 61.605469 100.175781 L 99.460938 62.320312 L 126.941406 79.617188 C 135.03125 75.117188 143.6875 71.5 152.773438 68.894531 L 160.113281 36.695312 L 213.636719 36.695312 L 220.972656 68.894531 C 229.855469 71.433594 238.316406 74.949219 246.25 79.308594 L 274.648438 61.445312 L 312.507812 99.300781 L 294.78125 127.484375 C 299.160156 135.324219 302.714844 143.691406 305.316406 152.46875 L 338.144531 159.945312 L 338.144531 213.46875 Z M 305.886719 220.8125 " fill-opacity="1" fill-rule="nonzero"/><path fill="#d7daf4" d="M 285.015625 187.636719 C 285.015625 189.242188 284.976562 190.847656 284.894531 192.449219 C 284.816406 194.054688 284.699219 195.65625 284.542969 197.253906 C 284.382812 198.851562 284.1875 200.445312 283.953125 202.035156 C 283.714844 203.625 283.441406 205.207031 283.128906 206.78125 C 282.816406 208.355469 282.464844 209.921875 282.074219 211.480469 C 281.683594 213.039062 281.253906 214.585938 280.789062 216.121094 C 280.324219 217.660156 279.820312 219.183594 279.277344 220.695312 C 278.738281 222.207031 278.160156 223.707031 277.542969 225.191406 C 276.929688 226.671875 276.277344 228.140625 275.59375 229.59375 C 274.90625 231.042969 274.183594 232.480469 273.425781 233.894531 C 272.667969 235.3125 271.878906 236.707031 271.050781 238.085938 C 270.226562 239.464844 269.367188 240.820312 268.476562 242.15625 C 267.582031 243.492188 266.65625 244.804688 265.703125 246.09375 C 264.746094 247.382812 263.757812 248.648438 262.738281 249.890625 C 261.71875 251.132812 260.671875 252.347656 259.589844 253.539062 C 258.511719 254.726562 257.40625 255.890625 256.269531 257.027344 C 255.132812 258.160156 253.972656 259.269531 252.78125 260.347656 C 251.589844 261.425781 250.375 262.472656 249.132812 263.492188 C 247.890625 264.511719 246.625 265.5 245.335938 266.457031 C 244.046875 267.414062 242.734375 268.335938 241.398438 269.230469 C 240.0625 270.121094 238.707031 270.980469 237.328125 271.808594 C 235.949219 272.632812 234.554688 273.425781 233.136719 274.179688 C 231.722656 274.9375 230.285156 275.660156 228.835938 276.347656 C 227.382812 277.035156 225.914062 277.683594 224.429688 278.296875 C 222.949219 278.914062 221.449219 279.492188 219.9375 280.03125 C 218.425781 280.574219 216.898438 281.078125 215.363281 281.542969 C 213.824219 282.007812 212.277344 282.4375 210.71875 282.828125 C 209.164062 283.21875 207.597656 283.570312 206.019531 283.882812 C 204.445312 284.195312 202.863281 284.46875 201.273438 284.707031 C 199.6875 284.941406 198.09375 285.136719 196.492188 285.296875 C 194.894531 285.453125 193.292969 285.570312 191.691406 285.648438 C 190.085938 285.730469 188.480469 285.769531 186.875 285.769531 C 185.269531 285.769531 183.664062 285.730469 182.058594 285.648438 C 180.453125 285.570312 178.855469 285.453125 177.253906 285.296875 C 175.65625 285.136719 174.0625 284.941406 172.472656 284.707031 C 170.886719 284.46875 169.304688 284.195312 167.726562 283.882812 C 166.152344 283.570312 164.585938 283.21875 163.027344 282.828125 C 161.46875 282.4375 159.921875 282.007812 158.386719 281.542969 C 156.847656 281.078125 155.324219 280.574219 153.8125 280.03125 C 152.300781 279.492188 150.800781 278.914062 149.316406 278.296875 C 147.835938 277.683594 146.367188 277.035156 144.914062 276.347656 C 143.460938 275.660156 142.027344 274.9375 140.613281 274.179688 C 139.195312 273.425781 137.796875 272.632812 136.421875 271.808594 C 135.042969 270.980469 133.6875 270.121094 132.351562 269.230469 C 131.015625 268.335938 129.703125 267.414062 128.414062 266.457031 C 127.121094 265.5 125.855469 264.511719 124.617188 263.492188 C 123.375 262.472656 122.15625 261.425781 120.96875 260.347656 C 119.777344 259.269531 118.613281 258.160156 117.480469 257.027344 C 116.34375 255.890625 115.234375 254.726562 114.15625 253.539062 C 113.078125 252.347656 112.03125 251.132812 111.011719 249.890625 C 109.992188 248.648438 109.003906 247.382812 108.046875 246.09375 C 107.089844 244.804688 106.167969 243.492188 105.273438 242.15625 C 104.382812 240.820312 103.523438 239.464844 102.695312 238.085938 C 101.871094 236.707031 101.078125 235.3125 100.324219 233.894531 C 99.566406 232.480469 98.84375 231.042969 98.15625 229.59375 C 97.46875 228.140625 96.820312 226.671875 96.207031 225.191406 C 95.589844 223.707031 95.011719 222.207031 94.472656 220.695312 C 93.929688 219.183594 93.425781 217.660156 92.960938 216.121094 C 92.496094 214.585938 92.066406 213.039062 91.675781 211.480469 C 91.285156 209.921875 90.933594 208.355469 90.621094 206.78125 C 90.308594 205.207031 90.03125 203.625 89.796875 202.035156 C 89.5625 200.445312 89.363281 198.851562 89.207031 197.253906 C 89.050781 195.65625 88.933594 194.054688 88.851562 192.449219 C 88.773438 190.847656 88.734375 189.242188 88.734375 187.636719 C 88.734375 186.03125 88.773438 184.425781 88.851562 182.820312 C 88.933594 181.214844 89.050781 179.617188 89.207031 178.015625 C 89.363281 176.417969 89.5625 174.824219 89.796875 173.238281 C 90.03125 171.648438 90.308594 170.066406 90.621094 168.492188 C 90.933594 166.917969 91.285156 165.347656 91.675781 163.792969 C 92.066406 162.234375 92.496094 160.6875 92.960938 159.148438 C 93.425781 157.613281 93.929688 156.089844 94.472656 154.574219 C 95.011719 153.0625 95.589844 151.566406 96.207031 150.082031 C 96.820312 148.597656 97.46875 147.128906 98.15625 145.679688 C 98.84375 144.226562 99.566406 142.792969 100.324219 141.375 C 101.078125 139.960938 101.871094 138.5625 102.695312 137.1875 C 103.523438 135.808594 104.382812 134.453125 105.273438 133.117188 C 106.167969 131.78125 107.089844 130.46875 108.046875 129.179688 C 109.003906 127.886719 109.992188 126.621094 111.011719 125.382812 C 112.03125 124.140625 113.078125 122.925781 114.15625 121.734375 C 115.234375 120.542969 116.34375 119.382812 117.480469 118.246094 C 118.613281 117.109375 119.777344 116.003906 120.96875 114.925781 C 122.15625 113.847656 123.375 112.796875 124.617188 111.777344 C 125.855469 110.757812 127.121094 109.773438 128.414062 108.816406 C 129.703125 107.859375 131.015625 106.933594 132.351562 106.042969 C 133.6875 105.148438 135.042969 104.289062 136.421875 103.464844 C 137.796875 102.640625 139.195312 101.847656 140.613281 101.089844 C 142.027344 100.332031 143.460938 99.613281 144.914062 98.925781 C 146.367188 98.238281 147.835938 97.589844 149.316406 96.972656 C 150.800781 96.359375 152.300781 95.78125 153.8125 95.238281 C 155.324219 94.699219 156.847656 94.195312 158.386719 93.730469 C 159.921875 93.261719 161.46875 92.835938 163.027344 92.445312 C 164.585938 92.054688 166.152344 91.703125 167.726562 91.390625 C 169.304688 91.074219 170.886719 90.800781 172.472656 90.566406 C 174.0625 90.328125 175.65625 90.132812 177.253906 89.976562 C 178.855469 89.820312 180.453125 89.699219 182.058594 89.621094 C 183.664062 89.542969 185.269531 89.503906 186.875 89.503906 C 188.480469 89.503906 190.085938 89.542969 191.691406 89.621094 C 193.292969 89.699219 194.894531 89.820312 196.492188 89.976562 C 198.09375 90.132812 199.6875 90.328125 201.273438 90.566406 C 202.863281 90.800781 204.445312 91.074219 206.019531 91.390625 C 207.597656 91.703125 209.164062 92.054688 210.71875 92.445312 C 212.277344 92.835938 213.824219 93.261719 215.363281 93.730469 C 216.898438 94.195312 218.425781 94.699219 219.9375 95.238281 C 221.449219 95.78125 222.949219 96.359375 224.429688 96.972656 C 225.914062 97.589844 227.382812 98.238281 228.835938 98.925781 C 230.285156 99.613281 231.722656 100.332031 233.136719 101.089844 C 234.554688 101.847656 235.949219 102.640625 237.328125 103.464844 C 238.707031 104.289062 240.0625 105.148438 241.398438 106.042969 C 242.734375 106.933594 244.046875 107.859375 245.335938 108.816406 C 246.625 109.773438 247.890625 110.757812 249.132812 111.777344 C 250.375 112.796875 251.589844 113.847656 252.78125 114.925781 C 253.972656 116.003906 255.132812 117.109375 256.269531 118.246094 C 257.40625 119.382812 258.511719 120.542969 259.589844 121.734375 C 260.671875 122.925781 261.71875 124.140625 262.738281 125.382812 C 263.757812 126.621094 264.746094 127.886719 265.703125 129.179688 C 266.65625 130.46875 267.582031 131.78125 268.476562 133.117188 C 269.367188 134.453125 270.226562 135.808594 271.050781 137.1875 C 271.878906 138.5625 272.667969 139.960938 273.425781 141.375 C 274.183594 142.792969 274.90625 144.226562 275.59375 145.679688 C 276.277344 147.128906 276.929688 148.597656 277.542969 150.082031 C 278.160156 151.566406 278.738281 153.0625 279.277344 154.574219 C 279.820312 156.089844 280.324219 157.613281 280.789062 159.148438 C 281.253906 160.6875 281.683594 162.234375 282.074219 163.792969 C 282.464844 165.347656 282.816406 166.917969 283.128906 168.492188 C 283.441406 170.066406 283.714844 171.648438 283.953125 173.238281 C 284.1875 174.824219 284.382812 176.417969 284.542969 178.015625 C 284.699219 179.617188 284.816406 181.214844 284.894531 182.820312 C 284.976562 184.425781 285.015625 186.03125 285.015625 187.636719 Z M 285.015625 187.636719 " fill-opacity="1" fill-rule="nonzero"/><path fill="#ffffff" d="M 280.070312 187.636719 C 280.070312 225.859375 257.054688 258.703125 224.132812 273.082031 C 212.726562 278.058594 200.121094 280.824219 186.878906 280.824219 C 172.5 280.824219 158.882812 277.566406 146.722656 271.753906 C 115.347656 256.753906 93.675781 224.726562 93.675781 187.636719 C 93.675781 136.164062 135.402344 94.445312 186.878906 94.445312 C 238.347656 94.445312 280.070312 136.164062 280.070312 187.636719 Z M 280.070312 187.636719 " fill-opacity="1" fill-rule="nonzero"/><path fill="#fec3bd" d="M 301.796875 188.089844 C 304.246094 186.710938 308.089844 184.980469 309.203125 187 C 310.886719 190.023438 301.523438 194.683594 301.523438 194.683594 C 301.523438 194.683594 309.691406 192.203125 307.308594 196.433594 C 304.921875 200.667969 280.996094 208.230469 280.996094 208.230469 L 275.007812 191.777344 C 275.007812 191.777344 284.597656 176.929688 287.109375 179.675781 C 288.277344 180.949219 286.222656 187.429688 286.222656 187.429688 C 286.222656 187.429688 298.785156 177.265625 300.855469 180.210938 C 301.960938 181.804688 299.554688 183.980469 297.101562 185.660156 C 301.332031 183.277344 307.292969 180.261719 307.90625 181.765625 C 308.5625 183.382812 304.441406 186.375 301.796875 188.089844 Z M 301.796875 188.089844 " fill-opacity="1" fill-rule="nonzero"/><path fill="#0c8ff9" d="M 202.570312 152.484375 C 202.570312 152.484375 204.476562 207.40625 205.78125 209.410156 C 206.621094 210.703125 207.757812 212.207031 209.117188 213.820312 C 216.449219 222.582031 230.21875 234.6875 237.800781 235.066406 C 238.234375 235.082031 238.6875 235.082031 239.160156 235.046875 C 254.0625 234.089844 283.324219 207.660156 283.324219 207.660156 L 274.65625 186.636719 L 242.0625 200.902344 C 231.128906 179.738281 221.015625 156.6875 202.570312 152.484375 Z M 202.570312 152.484375 " fill-opacity="1" fill-rule="nonzero"/><path fill="#0e6bb9" d="M 209.117188 213.820312 C 216.449219 222.582031 230.21875 234.6875 237.800781 235.066406 C 238.234375 235.082031 238.6875 235.082031 239.160156 235.046875 C 223.125 226.910156 218.71875 176.257812 218.71875 176.257812 C 218.71875 176.257812 212.90625 198.625 209.117188 213.820312 Z M 209.117188 213.820312 " fill-opacity="1" fill-rule="nonzero"/><path fill="#0c8ff9" d="M 224.132812 273.082031 C 212.726562 278.058594 200.121094 280.824219 186.878906 280.824219 C 172.5 280.824219 158.882812 277.566406 146.722656 271.753906 C 146.808594 267.085938 146.90625 262.375 147 259.914062 C 147.378906 249.410156 147.734375 236.460938 147.328125 231.835938 C 146.453125 221.773438 142.503906 207.109375 140.304688 193.292969 C 138.292969 180.753906 137.730469 168.914062 142.226562 161.871094 C 146.382812 155.332031 168.167969 151.191406 168.167969 151.191406 L 192.734375 149.726562 C 192.734375 149.726562 209.683594 153.488281 213.425781 158.667969 C 221.535156 169.882812 220.902344 214.183594 220.902344 214.183594 C 220.902344 214.183594 222.9375 252.292969 224.132812 273.082031 Z M 224.132812 273.082031 " fill-opacity="1" fill-rule="nonzero"/><path fill="#b94768" d="M 200.648438 105.160156 L 198.066406 104.855469 C 198.085938 104.679688 200.042969 87.039062 191.621094 77.375 C 188.097656 73.332031 183.179688 71.214844 177.007812 71.089844 L 177.058594 68.492188 C 184 68.632812 189.558594 71.050781 193.585938 75.675781 C 202.765625 86.214844 200.738281 104.390625 200.648438 105.160156 Z M 200.648438 105.160156 " fill-opacity="1" fill-rule="nonzero"/><path fill="#fe6081" d="M 206.398438 105.007812 C 206.398438 105.671875 206.335938 106.332031 206.203125 106.984375 C 206.074219 107.636719 205.882812 108.273438 205.628906 108.886719 C 205.371094 109.503906 205.058594 110.085938 204.691406 110.640625 C 204.320312 111.195312 203.898438 111.707031 203.429688 112.175781 C 202.957031 112.648438 202.445312 113.070312 201.890625 113.4375 C 201.339844 113.808594 200.753906 114.121094 200.140625 114.375 C 199.523438 114.628906 198.890625 114.824219 198.238281 114.953125 C 197.582031 115.082031 196.921875 115.148438 196.257812 115.148438 C 195.59375 115.148438 194.933594 115.082031 194.28125 114.953125 C 193.625 114.824219 192.992188 114.628906 192.378906 114.375 C 191.761719 114.121094 191.175781 113.808594 190.625 113.4375 C 190.070312 113.070312 189.558594 112.648438 189.085938 112.175781 C 188.617188 111.707031 188.195312 111.195312 187.824219 110.640625 C 187.457031 110.085938 187.144531 109.503906 186.886719 108.886719 C 186.632812 108.273438 186.441406 107.636719 186.3125 106.984375 C 186.179688 106.332031 186.117188 105.671875 186.117188 105.007812 C 186.117188 104.339844 186.179688 103.683594 186.3125 103.027344 C 186.441406 102.375 186.632812 101.742188 186.886719 101.125 C 187.144531 100.511719 187.457031 99.925781 187.824219 99.375 C 188.195312 98.820312 188.617188 98.308594 189.085938 97.835938 C 189.558594 97.367188 190.070312 96.945312 190.625 96.574219 C 191.175781 96.207031 191.761719 95.894531 192.378906 95.636719 C 192.992188 95.382812 193.625 95.191406 194.28125 95.0625 C 194.933594 94.929688 195.59375 94.867188 196.257812 94.867188 C 196.921875 94.867188 197.582031 94.929688 198.238281 95.0625 C 198.890625 95.191406 199.523438 95.382812 200.140625 95.636719 C 200.753906 95.894531 201.339844 96.207031 201.890625 96.574219 C 202.445312 96.945312 202.957031 97.367188 203.429688 97.835938 C 203.898438 98.308594 204.320312 98.820312 204.691406 99.375 C 205.058594 99.925781 205.371094 100.511719 205.628906 101.125 C 205.882812 101.742188 206.074219 102.375 206.203125 103.027344 C 206.335938 103.683594 206.398438 104.339844 206.398438 105.007812 Z M 206.398438 105.007812 " fill-opacity="1" fill-rule="nonzero"/><path fill="#06112d" d="M 201.109375 80.367188 C 201.109375 80.367188 205.523438 96.324219 196.085938 103.257812 C 188.734375 108.65625 186.210938 93.132812 185.457031 86.007812 C 185.316406 84.6875 186.808594 83.835938 187.878906 84.617188 L 195.089844 89.886719 " fill-opacity="1" fill-rule="nonzero"/><path fill="#fec3bd" d="M 164.339844 121.054688 C 166.050781 126.402344 167.789062 143.695312 168.167969 151.1875 C 168.179688 151.511719 177.277344 161.925781 187.523438 162.367188 C 193.308594 162.613281 193.582031 150.101562 193.523438 149.914062 C 193.476562 149.753906 193.222656 146.21875 192.957031 142.078125 C 192.683594 137.6875 192.410156 132.609375 192.390625 130.183594 C 192.371094 129.464844 192.382812 128.972656 192.429688 128.8125 C 192.636719 128.027344 192.183594 127.222656 191.40625 126.980469 L 166.25 119.136719 C 165.070312 118.765625 163.964844 119.871094 164.339844 121.054688 Z M 164.339844 121.054688 " fill-opacity="1" fill-rule="nonzero"/><path fill="#f18b89" d="M 173.175781 134.1875 C 175.691406 137.882812 189.800781 141.617188 192.957031 142.078125 C 192.683594 137.6875 192.410156 132.609375 192.390625 130.183594 C 191.257812 129.824219 190.394531 129.558594 190.394531 129.558594 C 190.394531 129.558594 169.433594 128.671875 173.175781 134.1875 Z M 173.175781 134.1875 " fill-opacity="1" fill-rule="nonzero"/><path fill="#fec3bd" d="M 194.988281 138.335938 C 181.53125 143.261719 168 130.46875 164.125 124.988281 L 164.125 124.980469 C 163.4375 124.011719 162.964844 123.25 162.714844 122.835938 C 162.578125 122.601562 162.386719 122.417969 162.148438 122.289062 C 160.265625 121.253906 151.691406 116.210938 153.269531 110.929688 C 154.296875 107.492188 156.523438 106.902344 158.210938 107.011719 C 159.199219 107.074219 159.976562 106.140625 159.757812 105.167969 C 153.828125 78.839844 183.28125 77.40625 192.417969 88.722656 C 192.820312 89.21875 193.238281 89.835938 193.667969 90.558594 C 199.871094 100.839844 209.445312 133.039062 194.988281 138.335938 Z M 194.988281 138.335938 " fill-opacity="1" fill-rule="nonzero"/><path fill="#06112d" d="M 200.0625 91.363281 C 197.625 103.0625 168.035156 90.355469 169.675781 95.355469 C 170.882812 99.054688 167.464844 100.671875 165.601562 101.261719 C 164.9375 101.472656 164.511719 102.109375 164.550781 102.804688 L 165 110.460938 C 165.042969 111.210938 164.535156 111.882812 163.800781 112.042969 C 163.105469 112.195312 162.398438 111.847656 162.09375 111.203125 L 160.632812 108.097656 C 160.453125 107.714844 160.125 107.417969 159.722656 107.296875 C 158.25 106.839844 154.664062 106.273438 153.269531 110.929688 C 151.691406 116.210938 160.265625 121.253906 162.148438 122.289062 C 162.386719 122.417969 162.578125 122.601562 162.714844 122.835938 C 162.964844 123.25 163.4375 124.011719 164.125 124.980469 L 164.125 124.988281 L 165.585938 126.851562 C 166.082031 128.257812 167.457031 141.988281 167.457031 141.988281 C 167.457031 141.988281 143.28125 115.539062 143.296875 101.472656 C 143.316406 82.003906 154.269531 90.253906 155.15625 82.640625 C 156.042969 75.023438 167.410156 71.03125 175.144531 71.90625 C 182.875 72.785156 195.820312 72.355469 199.238281 75.886719 C 202.253906 78.992188 201.265625 85.597656 200.0625 91.363281 Z M 200.0625 91.363281 " fill-opacity="1" fill-rule="nonzero"/><path fill="#06112d" d="M 182.363281 110.652344 C 182.40625 110.984375 182.40625 111.3125 182.363281 111.632812 C 182.320312 111.953125 182.234375 112.238281 182.109375 112.496094 C 181.984375 112.753906 181.828125 112.960938 181.640625 113.113281 C 181.449219 113.269531 181.246094 113.363281 181.023438 113.390625 C 180.800781 113.421875 180.578125 113.386719 180.355469 113.289062 C 180.132812 113.1875 179.925781 113.03125 179.738281 112.816406 C 179.550781 112.601562 179.390625 112.34375 179.265625 112.046875 C 179.140625 111.75 179.054688 111.4375 179.007812 111.101562 C 178.964844 110.769531 178.964844 110.441406 179.007812 110.125 C 179.050781 109.804688 179.136719 109.515625 179.261719 109.257812 C 179.386719 109 179.542969 108.796875 179.730469 108.640625 C 179.917969 108.484375 180.125 108.390625 180.347656 108.363281 C 180.570312 108.332031 180.792969 108.367188 181.015625 108.46875 C 181.238281 108.566406 181.441406 108.726562 181.632812 108.941406 C 181.820312 109.15625 181.976562 109.410156 182.105469 109.707031 C 182.230469 110.003906 182.316406 110.320312 182.363281 110.652344 Z M 182.363281 110.652344 " fill-opacity="1" fill-rule="nonzero"/><path fill="#06112d" d="M 177.753906 107.320312 C 177.636719 107.320312 177.523438 107.273438 177.4375 107.183594 C 177.273438 107.011719 177.28125 106.738281 177.453125 106.574219 C 180.476562 103.695312 182.671875 105.289062 182.761719 105.359375 C 182.953125 105.503906 182.992188 105.773438 182.847656 105.964844 C 182.703125 106.15625 182.4375 106.195312 182.246094 106.054688 C 182.167969 106 180.511719 104.859375 178.050781 107.199219 C 177.96875 107.28125 177.859375 107.320312 177.753906 107.320312 Z M 177.753906 107.320312 " fill-opacity="1" fill-rule="nonzero"/><path fill="#06112d" d="M 196.605469 109.398438 C 196.652344 109.730469 196.652344 110.058594 196.609375 110.375 C 196.5625 110.695312 196.480469 110.984375 196.355469 111.242188 C 196.226562 111.5 196.070312 111.703125 195.882812 111.859375 C 195.695312 112.015625 195.488281 112.109375 195.265625 112.136719 C 195.046875 112.167969 194.824219 112.132812 194.601562 112.03125 C 194.378906 111.933594 194.171875 111.773438 193.984375 111.558594 C 193.792969 111.34375 193.636719 111.089844 193.507812 110.792969 C 193.382812 110.496094 193.296875 110.179688 193.253906 109.847656 C 193.207031 109.515625 193.207031 109.1875 193.25 108.867188 C 193.292969 108.546875 193.378906 108.261719 193.503906 108.003906 C 193.628906 107.746094 193.785156 107.539062 193.976562 107.386719 C 194.164062 107.230469 194.367188 107.136719 194.589844 107.105469 C 194.8125 107.078125 195.035156 107.113281 195.257812 107.210938 C 195.480469 107.3125 195.6875 107.46875 195.875 107.683594 C 196.066406 107.898438 196.222656 108.15625 196.347656 108.453125 C 196.476562 108.75 196.5625 109.0625 196.605469 109.398438 Z M 196.605469 109.398438 " fill-opacity="1" fill-rule="nonzero"/><path fill="#06112d" d="M 191.996094 106.066406 C 191.882812 106.066406 191.769531 106.019531 191.683594 105.929688 C 191.515625 105.757812 191.523438 105.484375 191.699219 105.320312 C 194.722656 102.441406 196.917969 104.035156 197.007812 104.105469 C 197.199219 104.25 197.234375 104.519531 197.09375 104.710938 C 196.949219 104.902344 196.679688 104.941406 196.488281 104.800781 C 196.414062 104.742188 194.753906 103.605469 192.292969 105.945312 C 192.210938 106.027344 192.101562 106.066406 191.996094 106.066406 Z M 191.996094 106.066406 " fill-opacity="1" fill-rule="nonzero"/><path fill="#f18b89" d="M 191.828125 123.1875 C 191.722656 123.1875 191.613281 123.148438 191.53125 123.070312 C 191.355469 122.90625 191.347656 122.632812 191.511719 122.457031 C 191.960938 121.980469 192.1875 121.382812 192.152344 120.769531 C 192.117188 120.171875 191.835938 119.621094 191.355469 119.21875 C 191.144531 119.042969 190.902344 118.886719 190.640625 118.722656 C 190.46875 118.613281 190.296875 118.503906 190.132812 118.386719 C 188.980469 117.570312 188.144531 116.355469 187.71875 114.871094 C 187.347656 113.574219 187.308594 112.242188 187.273438 110.953125 C 187.269531 110.714844 187.457031 110.515625 187.695312 110.507812 C 187.699219 110.507812 187.703125 110.507812 187.707031 110.507812 C 187.941406 110.507812 188.132812 110.695312 188.140625 110.929688 C 188.175781 112.164062 188.210938 113.441406 188.550781 114.632812 C 188.921875 115.925781 189.640625 116.980469 190.632812 117.679688 C 190.785156 117.789062 190.945312 117.890625 191.105469 117.992188 C 191.378906 118.164062 191.660156 118.34375 191.914062 118.554688 C 192.578125 119.113281 192.96875 119.882812 193.019531 120.71875 C 193.066406 121.574219 192.757812 122.402344 192.144531 123.050781 C 192.058594 123.140625 191.941406 123.1875 191.828125 123.1875 Z M 191.828125 123.1875 " fill-opacity="1" fill-rule="nonzero"/><path fill="#f18b89" d="M 187.726562 130.578125 C 185.742188 130.578125 183.761719 129.65625 182.515625 128.105469 C 182.363281 127.917969 182.394531 127.648438 182.578125 127.496094 C 182.765625 127.347656 183.039062 127.375 183.1875 127.5625 C 184.414062 129.085938 186.457031 129.914062 188.398438 129.667969 C 188.632812 129.640625 188.851562 129.808594 188.882812 130.046875 C 188.914062 130.28125 188.746094 130.5 188.507812 130.527344 C 188.246094 130.5625 187.988281 130.578125 187.726562 130.578125 Z M 187.726562 130.578125 " fill-opacity="1" fill-rule="nonzero"/><path fill="#0e6bb9" d="M 213.425781 233.328125 L 208.957031 257.410156 L 186.199219 258.328125 L 146.996094 259.914062 C 147.386719 249.410156 147.738281 236.457031 147.332031 231.832031 C 146.453125 221.769531 142.507812 207.105469 140.308594 193.296875 L 157.605469 173.171875 C 157.605469 173.171875 162.558594 182.875 164.285156 190.035156 C 166.011719 197.191406 167.21875 221.871094 167.21875 221.871094 Z M 213.425781 233.328125 " fill-opacity="1" fill-rule="nonzero"/><path fill="#fec3bd" d="M 210.113281 238.246094 C 210.113281 238.246094 225.195312 227.375 227.726562 228.988281 C 230.230469 230.589844 223.625 238.472656 223.625 238.472656 " fill-opacity="1" fill-rule="nonzero"/><path fill="#fec3bd" d="M 223.625 238.472656 C 225.40625 238.269531 238.652344 236.78125 237.769531 240.097656 C 237.449219 241.304688 234.824219 242.6875 233.652344 242.976562 C 237.265625 243.082031 242.390625 244.1875 242.050781 245.839844 C 241.578125 248.136719 237.1875 247.898438 235.660156 247.75 C 237.214844 247.957031 241.671875 248.753906 240.746094 250.902344 C 240.183594 252.210938 234.816406 252.597656 233.128906 252.652344 C 234.355469 253.058594 239.023438 254.125 236.917969 256.277344 C 234.210938 259.050781 207.527344 255.03125 207.527344 255.03125 L 210.113281 238.246094 " fill-opacity="1" fill-rule="nonzero"/><path fill="#0c8ff9" d="M 135.023438 247.125 C 143.652344 255.679688 208.960938 257.410156 208.960938 257.410156 L 213.425781 233.328125 L 162.628906 223.863281 C 162.628906 223.863281 163.09375 190.816406 160.449219 180.3125 C 156.597656 165.007812 142.222656 161.867188 142.222656 161.867188 C 141.050781 163.222656 135.304688 169.738281 133.230469 177.9375 C 127.589844 200.25 126.488281 238.667969 135.023438 247.125 Z M 135.023438 247.125 " fill-opacity="1" fill-rule="nonzero"/><path fill="#b94768" d="M 166.636719 132.457031 C 165.179688 132.457031 163.765625 131.738281 162.933594 130.488281 L 158.796875 124.292969 L 160.238281 123.332031 L 164.375 129.527344 C 165.03125 130.511719 166.285156 130.957031 167.414062 130.609375 L 175.984375 127.964844 L 176.496094 129.621094 L 167.925781 132.265625 C 167.5 132.394531 167.066406 132.457031 166.636719 132.457031 Z M 166.636719 132.457031 " fill-opacity="1" fill-rule="nonzero"/><path fill="#fe6081" d="M 169.523438 116.488281 C 169.523438 117.152344 169.460938 117.8125 169.332031 118.464844 C 169.199219 119.121094 169.007812 119.753906 168.753906 120.367188 C 168.5 120.984375 168.1875 121.566406 167.816406 122.121094 C 167.445312 122.675781 167.027344 123.1875 166.554688 123.660156 C 166.082031 124.128906 165.570312 124.550781 165.019531 124.917969 C 164.464844 125.289062 163.878906 125.601562 163.265625 125.855469 C 162.648438 126.113281 162.015625 126.304688 161.363281 126.433594 C 160.710938 126.5625 160.050781 126.628906 159.382812 126.628906 C 158.71875 126.628906 158.058594 126.5625 157.40625 126.433594 C 156.753906 126.304688 156.117188 126.113281 155.503906 125.855469 C 154.886719 125.601562 154.304688 125.289062 153.75 124.917969 C 153.195312 124.550781 152.683594 124.128906 152.210938 123.660156 C 151.742188 123.1875 151.320312 122.675781 150.953125 122.121094 C 150.582031 121.566406 150.269531 120.984375 150.015625 120.367188 C 149.757812 119.753906 149.566406 119.121094 149.4375 118.464844 C 149.308594 117.8125 149.242188 117.152344 149.242188 116.488281 C 149.242188 115.824219 149.308594 115.164062 149.4375 114.511719 C 149.566406 113.855469 149.757812 113.222656 150.015625 112.609375 C 150.269531 111.992188 150.582031 111.40625 150.953125 110.855469 C 151.320312 110.300781 151.742188 109.789062 152.210938 109.316406 C 152.683594 108.847656 153.195312 108.425781 153.75 108.058594 C 154.304688 107.6875 154.886719 107.375 155.503906 107.121094 C 156.117188 106.863281 156.753906 106.671875 157.40625 106.542969 C 158.058594 106.414062 158.71875 106.347656 159.382812 106.347656 C 160.050781 106.347656 160.710938 106.414062 161.363281 106.542969 C 162.015625 106.671875 162.648438 106.863281 163.265625 107.121094 C 163.878906 107.375 164.464844 107.6875 165.019531 108.058594 C 165.570312 108.425781 166.082031 108.847656 166.554688 109.316406 C 167.027344 109.789062 167.445312 110.300781 167.816406 110.855469 C 168.1875 111.40625 168.5 111.992188 168.753906 112.609375 C 169.007812 113.222656 169.199219 113.855469 169.332031 114.511719 C 169.460938 115.164062 169.523438 115.824219 169.523438 116.488281 Z M 169.523438 116.488281 " fill-opacity="1" fill-rule="nonzero"/><path fill="#b94768" d="M 165.128906 116.488281 C 165.128906 116.867188 165.09375 117.238281 165.019531 117.609375 C 164.945312 117.980469 164.835938 118.339844 164.691406 118.6875 C 164.546875 119.035156 164.371094 119.367188 164.160156 119.679688 C 163.953125 119.992188 163.714844 120.285156 163.445312 120.550781 C 163.179688 120.816406 162.890625 121.054688 162.574219 121.265625 C 162.261719 121.472656 161.929688 121.652344 161.582031 121.796875 C 161.234375 121.941406 160.875 122.050781 160.503906 122.121094 C 160.132812 122.195312 159.761719 122.234375 159.382812 122.234375 C 159.007812 122.234375 158.632812 122.195312 158.261719 122.121094 C 157.894531 122.050781 157.535156 121.941406 157.183594 121.796875 C 156.835938 121.652344 156.503906 121.472656 156.191406 121.265625 C 155.878906 121.054688 155.589844 120.816406 155.320312 120.550781 C 155.054688 120.285156 154.816406 119.992188 154.605469 119.679688 C 154.398438 119.367188 154.21875 119.035156 154.074219 118.6875 C 153.929688 118.339844 153.824219 117.980469 153.75 117.609375 C 153.675781 117.238281 153.636719 116.867188 153.636719 116.488281 C 153.636719 116.109375 153.675781 115.738281 153.75 115.367188 C 153.824219 114.996094 153.929688 114.636719 154.074219 114.289062 C 154.21875 113.941406 154.398438 113.609375 154.605469 113.296875 C 154.816406 112.984375 155.054688 112.691406 155.320312 112.425781 C 155.589844 112.160156 155.878906 111.921875 156.191406 111.710938 C 156.503906 111.5 156.835938 111.324219 157.183594 111.179688 C 157.535156 111.035156 157.894531 110.925781 158.261719 110.855469 C 158.632812 110.78125 159.007812 110.742188 159.382812 110.742188 C 159.761719 110.742188 160.132812 110.78125 160.503906 110.855469 C 160.875 110.925781 161.234375 111.035156 161.582031 111.179688 C 161.929688 111.324219 162.261719 111.5 162.574219 111.710938 C 162.890625 111.921875 163.179688 112.160156 163.445312 112.425781 C 163.714844 112.691406 163.953125 112.984375 164.160156 113.296875 C 164.371094 113.609375 164.546875 113.941406 164.691406 114.289062 C 164.835938 114.636719 164.945312 114.996094 165.019531 115.367188 C 165.09375 115.738281 165.128906 116.109375 165.128906 116.488281 Z M 165.128906 116.488281 " fill-opacity="1" fill-rule="nonzero"/><path fill="#b94768" d="M 158.085938 116.566406 C 158.007812 115.242188 156.28125 84.042969 167.230469 72.65625 C 169.960938 69.816406 173.296875 68.417969 177.058594 68.492188 L 177.007812 71.089844 C 173.886719 71.027344 171.34375 72.128906 169.105469 74.457031 C 158.941406 85.023438 160.664062 116.097656 160.679688 116.410156 Z M 158.085938 116.566406 " fill-opacity="1" fill-rule="nonzero"/><path fill="#b94768" d="M 179.039062 128.792969 C 179.039062 129.167969 178.96875 129.523438 178.828125 129.867188 C 178.6875 130.210938 178.484375 130.511719 178.21875 130.773438 C 177.957031 131.039062 177.65625 131.238281 177.3125 131.382812 C 176.96875 131.523438 176.613281 131.59375 176.242188 131.59375 C 175.871094 131.59375 175.511719 131.523438 175.167969 131.382812 C 174.824219 131.238281 174.523438 131.039062 174.261719 130.773438 C 173.996094 130.511719 173.796875 130.210938 173.652344 129.867188 C 173.511719 129.523438 173.441406 129.167969 173.441406 128.792969 C 173.441406 128.421875 173.511719 128.066406 173.652344 127.722656 C 173.796875 127.378906 173.996094 127.078125 174.261719 126.816406 C 174.523438 126.550781 174.824219 126.351562 175.167969 126.207031 C 175.511719 126.066406 175.871094 125.996094 176.242188 125.996094 C 176.613281 125.996094 176.96875 126.066406 177.3125 126.207031 C 177.65625 126.351562 177.957031 126.550781 178.21875 126.816406 C 178.484375 127.078125 178.6875 127.378906 178.828125 127.722656 C 178.96875 128.066406 179.039062 128.421875 179.039062 128.792969 Z M 179.039062 128.792969 " fill-opacity="1" fill-rule="nonzero"/><path fill="#37c092" d="M 338.699219 287.246094 C 338.699219 287.246094 323.550781 284.1875 321.617188 274.222656 C 319.886719 265.285156 334.4375 254.238281 334.4375 254.238281 C 354.074219 275.921875 338.699219 287.246094 338.699219 287.246094 Z M 338.699219 287.246094 " fill-opacity="1" fill-rule="nonzero"/><path fill="#238a6f" d="M 335.0625 273.585938 C 336.550781 276.707031 337.449219 280.074219 338.191406 283.445312 C 338.917969 286.828125 339.324219 290.269531 339.636719 293.707031 L 339.796875 296.296875 L 339.871094 298.886719 C 339.9375 300.613281 339.90625 302.339844 339.863281 304.066406 C 339.816406 305.789062 339.679688 307.511719 339.585938 309.234375 C 339.410156 310.949219 339.234375 312.664062 339.023438 314.375 C 339.039062 312.648438 339.128906 310.929688 339.160156 309.210938 C 339.167969 307.492188 339.230469 305.773438 339.195312 304.058594 C 339.148438 300.625 339.089844 297.191406 338.777344 293.777344 C 338.535156 290.355469 338.121094 286.949219 337.539062 283.570312 C 337.246094 281.882812 336.917969 280.199219 336.5 278.535156 C 336.117188 276.859375 335.648438 275.207031 335.0625 273.585938 Z M 335.0625 273.585938 " fill-opacity="1" fill-rule="nonzero"/><path fill="#fcc283" d="M 351.046875 311.328125 L 347.164062 337.964844 L 324.449219 337.964844 L 320.566406 311.328125 Z M 351.046875 311.328125 " fill-opacity="1" fill-rule="nonzero"/><path fill="#fe8b70" d="M 350.234375 316.882812 L 351.046875 311.328125 L 320.566406 311.328125 L 321.375 316.882812 Z M 350.234375 316.882812 " fill-opacity="1" fill-rule="nonzero"/><path fill="#37c092" d="M 337.691406 305.164062 C 337.691406 305.164062 332.949219 285.078125 364.289062 276.058594 C 364.289062 276.058594 368.542969 295.390625 360.863281 302.925781 C 352.300781 311.328125 337.691406 305.164062 337.691406 305.164062 Z M 337.691406 305.164062 " fill-opacity="1" fill-rule="nonzero"/><path fill="#238a6f" d="M 351.046875 293.242188 C 350.121094 293.710938 349.214844 294.195312 348.351562 294.757812 C 347.472656 295.285156 346.625 295.863281 345.804688 296.472656 C 344.175781 297.703125 342.644531 299.054688 341.296875 300.566406 C 339.910156 302.050781 338.792969 303.761719 337.851562 305.550781 L 337.179688 306.921875 L 336.660156 308.363281 C 336.574219 308.605469 336.46875 308.839844 336.394531 309.085938 L 336.203125 309.832031 C 336.082031 310.328125 335.949219 310.828125 335.804688 311.328125 C 335.984375 309.277344 336.34375 307.175781 337.246094 305.269531 C 338.078125 303.34375 339.230469 301.539062 340.652344 299.992188 C 342.066406 298.4375 343.667969 297.054688 345.429688 295.929688 C 347.1875 294.804688 349.058594 293.84375 351.046875 293.242188 Z M 351.046875 293.242188 " fill-opacity="1" fill-rule="nonzero"/><path fill="#238a6f" d="M 328.328125 293.242188 C 329.722656 294.171875 330.914062 295.40625 331.886719 296.792969 C 332.863281 298.175781 333.640625 299.710938 334.140625 301.339844 C 334.617188 302.96875 334.941406 304.660156 334.890625 306.359375 C 334.9375 307.203125 334.789062 308.046875 334.707031 308.878906 C 334.570312 309.710938 334.359375 310.523438 334.152344 311.328125 C 334.167969 310.488281 334.292969 309.667969 334.285156 308.84375 C 334.265625 308.015625 334.320312 307.199219 334.214844 306.382812 C 334.132812 304.75 333.78125 303.148438 333.316406 301.601562 C 332.855469 300.042969 332.152344 298.566406 331.324219 297.160156 C 330.480469 295.765625 329.503906 294.425781 328.328125 293.242188 Z M 328.328125 293.242188 " fill-opacity="1" fill-rule="nonzero"/><path fill="#37c092" d="M 330.5 295.347656 C 330.5 295.347656 326.046875 278.570312 302.417969 280.851562 C 302.417969 280.851562 308.210938 302.054688 316.457031 304.480469 C 326.160156 307.335938 330.5 295.347656 330.5 295.347656 Z M 330.5 295.347656 " fill-opacity="1" fill-rule="nonzero"/><path fill="#37c092" d="M 316.457031 108.617188 L 316.457031 135.460938 L 322.453125 135.460938 L 322.453125 142.007812 L 331.398438 135.460938 L 374.925781 135.460938 L 374.925781 108.617188 Z M 316.457031 108.617188 " fill-opacity="1" fill-rule="nonzero"/><path fill="#ffffff" d="M 361.066406 121.832031 C 361.066406 122.175781 361 122.507812 360.867188 122.824219 C 360.734375 123.144531 360.546875 123.425781 360.304688 123.667969 C 360.0625 123.914062 359.78125 124.101562 359.460938 124.230469 C 359.144531 124.363281 358.8125 124.429688 358.46875 124.429688 C 358.121094 124.429688 357.792969 124.363281 357.472656 124.230469 C 357.15625 124.101562 356.875 123.914062 356.628906 123.667969 C 356.386719 123.425781 356.199219 123.144531 356.066406 122.824219 C 355.933594 122.507812 355.867188 122.175781 355.867188 121.832031 C 355.867188 121.488281 355.933594 121.15625 356.066406 120.835938 C 356.199219 120.519531 356.386719 120.238281 356.628906 119.992188 C 356.875 119.75 357.15625 119.5625 357.472656 119.429688 C 357.792969 119.296875 358.121094 119.234375 358.46875 119.234375 C 358.8125 119.234375 359.144531 119.296875 359.460938 119.429688 C 359.78125 119.5625 360.0625 119.75 360.304688 119.992188 C 360.546875 120.238281 360.734375 120.519531 360.867188 120.835938 C 361 121.15625 361.066406 121.488281 361.066406 121.832031 Z M 361.066406 121.832031 " fill-opacity="1" fill-rule="nonzero"/><path fill="#ffffff" d="M 350.023438 121.832031 C 350.023438 122.175781 349.957031 122.507812 349.824219 122.824219 C 349.691406 123.144531 349.503906 123.425781 349.261719 123.667969 C 349.015625 123.914062 348.738281 124.101562 348.417969 124.230469 C 348.101562 124.363281 347.769531 124.429688 347.421875 124.429688 C 347.078125 124.429688 346.746094 124.363281 346.429688 124.230469 C 346.109375 124.101562 345.828125 123.914062 345.585938 123.667969 C 345.34375 123.425781 345.15625 123.144531 345.023438 122.824219 C 344.890625 122.507812 344.824219 122.175781 344.824219 121.832031 C 344.824219 121.488281 344.890625 121.15625 345.023438 120.835938 C 345.15625 120.519531 345.34375 120.238281 345.585938 119.992188 C 345.828125 119.75 346.109375 119.5625 346.429688 119.429688 C 346.746094 119.296875 347.078125 119.234375 347.421875 119.234375 C 347.769531 119.234375 348.101562 119.296875 348.417969 119.429688 C 348.738281 119.5625 349.015625 119.75 349.261719 119.992188 C 349.503906 120.238281 349.691406 120.519531 349.824219 120.835938 C 349.957031 121.15625 350.023438 121.488281 350.023438 121.832031 Z M 350.023438 121.832031 " fill-opacity="1" fill-rule="nonzero"/><path fill="#ffffff" d="M 338.976562 121.832031 C 338.976562 122.175781 338.914062 122.507812 338.78125 122.824219 C 338.648438 123.144531 338.460938 123.425781 338.21875 123.667969 C 337.972656 123.914062 337.691406 124.101562 337.375 124.230469 C 337.054688 124.363281 336.722656 124.429688 336.378906 124.429688 C 336.035156 124.429688 335.703125 124.363281 335.386719 124.230469 C 335.066406 124.101562 334.785156 123.914062 334.542969 123.667969 C 334.296875 123.425781 334.109375 123.144531 333.980469 122.824219 C 333.847656 122.507812 333.78125 122.175781 333.78125 121.832031 C 333.78125 121.488281 333.847656 121.15625 333.980469 120.835938 C 334.109375 120.519531 334.296875 120.238281 334.542969 119.992188 C 334.785156 119.75 335.066406 119.5625 335.386719 119.429688 C 335.703125 119.296875 336.035156 119.234375 336.378906 119.234375 C 336.722656 119.234375 337.054688 119.296875 337.375 119.429688 C 337.691406 119.5625 337.972656 119.75 338.21875 119.992188 C 338.460938 120.238281 338.648438 120.519531 338.78125 120.835938 C 338.914062 121.15625 338.976562 121.488281 338.976562 121.832031 Z M 338.976562 121.832031 " fill-opacity="1" fill-rule="nonzero"/><path fill="#fe6081" d="M 58.542969 112.8125 L 58.542969 139.652344 L 52.546875 139.652344 L 52.546875 146.199219 L 43.601562 139.652344 L 0.0742188 139.652344 L 0.0742188 112.8125 Z M 58.542969 112.8125 " fill-opacity="1" fill-rule="nonzero"/><path fill="#ffffff" d="M 19.132812 126.023438 C 19.132812 126.367188 19.066406 126.699219 18.933594 127.019531 C 18.800781 127.335938 18.613281 127.617188 18.371094 127.863281 C 18.125 128.105469 17.84375 128.292969 17.527344 128.425781 C 17.207031 128.554688 16.878906 128.621094 16.53125 128.621094 C 16.1875 128.621094 15.855469 128.554688 15.539062 128.425781 C 15.21875 128.292969 14.9375 128.105469 14.695312 127.863281 C 14.453125 127.617188 14.265625 127.335938 14.132812 127.019531 C 14 126.699219 13.933594 126.367188 13.933594 126.023438 C 13.933594 125.679688 14 125.347656 14.132812 125.03125 C 14.265625 124.710938 14.453125 124.429688 14.695312 124.1875 C 14.9375 123.941406 15.21875 123.753906 15.539062 123.625 C 15.855469 123.492188 16.1875 123.425781 16.53125 123.425781 C 16.878906 123.425781 17.207031 123.492188 17.527344 123.625 C 17.84375 123.753906 18.125 123.941406 18.371094 124.1875 C 18.613281 124.429688 18.800781 124.710938 18.933594 125.03125 C 19.066406 125.347656 19.132812 125.679688 19.132812 126.023438 Z M 19.132812 126.023438 " fill-opacity="1" fill-rule="nonzero"/><path fill="#ffffff" d="M 30.175781 126.023438 C 30.175781 126.367188 30.109375 126.699219 29.976562 127.019531 C 29.84375 127.335938 29.65625 127.617188 29.414062 127.863281 C 29.171875 128.105469 28.890625 128.292969 28.570312 128.425781 C 28.253906 128.554688 27.921875 128.621094 27.578125 128.621094 C 27.230469 128.621094 26.898438 128.554688 26.582031 128.425781 C 26.261719 128.292969 25.984375 128.105469 25.738281 127.863281 C 25.496094 127.617188 25.308594 127.335938 25.175781 127.019531 C 25.042969 126.699219 24.976562 126.367188 24.976562 126.023438 C 24.976562 125.679688 25.042969 125.347656 25.175781 125.03125 C 25.308594 124.710938 25.496094 124.429688 25.738281 124.1875 C 25.984375 123.941406 26.261719 123.753906 26.582031 123.625 C 26.898438 123.492188 27.230469 123.425781 27.578125 123.425781 C 27.921875 123.425781 28.253906 123.492188 28.570312 123.625 C 28.890625 123.753906 29.171875 123.941406 29.414062 124.1875 C 29.65625 124.429688 29.84375 124.710938 29.976562 125.03125 C 30.109375 125.347656 30.175781 125.679688 30.175781 126.023438 Z M 30.175781 126.023438 " fill-opacity="1" fill-rule="nonzero"/><path fill="#ffffff" d="M 41.21875 126.023438 C 41.21875 126.367188 41.152344 126.699219 41.019531 127.019531 C 40.890625 127.335938 40.703125 127.617188 40.457031 127.863281 C 40.214844 128.105469 39.933594 128.292969 39.613281 128.425781 C 39.296875 128.554688 38.964844 128.621094 38.621094 128.621094 C 38.277344 128.621094 37.945312 128.554688 37.625 128.425781 C 37.308594 128.292969 37.027344 128.105469 36.78125 127.863281 C 36.539062 127.617188 36.351562 127.335938 36.21875 127.019531 C 36.085938 126.699219 36.023438 126.367188 36.023438 126.023438 C 36.023438 125.679688 36.085938 125.347656 36.21875 125.03125 C 36.351562 124.710938 36.539062 124.429688 36.78125 124.1875 C 37.027344 123.941406 37.308594 123.753906 37.625 123.625 C 37.945312 123.492188 38.277344 123.425781 38.621094 123.425781 C 38.964844 123.425781 39.296875 123.492188 39.613281 123.625 C 39.933594 123.753906 40.214844 123.941406 40.457031 124.1875 C 40.703125 124.429688 40.890625 124.710938 41.019531 125.03125 C 41.152344 125.347656 41.21875 125.679688 41.21875 126.023438 Z M 41.21875 126.023438 " fill-opacity="1" fill-rule="nonzero"/><path fill="#f7b3c2" d="M 38.867188 253.410156 L 21.484375 253.410156 C 19.96875 253.410156 18.738281 252.179688 18.738281 250.664062 L 18.738281 237.410156 C 18.738281 235.886719 19.96875 234.644531 21.484375 234.644531 L 38.867188 234.644531 C 40.382812 234.644531 41.613281 235.886719 41.613281 237.410156 L 41.613281 250.664062 C 41.613281 252.179688 40.382812 253.410156 38.867188 253.410156 Z M 21.484375 235.511719 C 20.445312 235.511719 19.601562 236.363281 19.601562 237.410156 L 19.601562 250.664062 C 19.601562 251.699219 20.445312 252.542969 21.484375 252.542969 L 38.867188 252.542969 C 39.902344 252.542969 40.746094 251.699219 40.746094 250.664062 L 40.746094 237.410156 C 40.746094 236.363281 39.902344 235.511719 38.867188 235.511719 Z M 21.484375 235.511719 " fill-opacity="1" fill-rule="nonzero"/><path fill="#f7b3c2" d="M 30.175781 246.292969 L 18.738281 237.625 L 18.738281 237.410156 C 18.738281 235.886719 19.976562 234.644531 21.503906 234.644531 L 38.867188 234.644531 C 40.382812 234.644531 41.613281 235.875 41.613281 237.390625 L 41.613281 237.605469 Z M 19.613281 237.203125 L 30.175781 245.207031 L 40.734375 237.183594 C 40.632812 236.242188 39.835938 235.511719 38.867188 235.511719 L 21.503906 235.511719 C 20.527344 235.511719 19.714844 236.253906 19.613281 237.203125 Z M 19.613281 237.203125 " fill-opacity="1" fill-rule="nonzero"/><path fill="#f9dae0" d="M 256.375 49.566406 C 256.375 50.265625 256.308594 50.960938 256.171875 51.644531 C 256.035156 52.332031 255.832031 53 255.566406 53.644531 C 255.296875 54.292969 254.96875 54.90625 254.578125 55.488281 C 254.191406 56.070312 253.75 56.609375 253.253906 57.105469 C 252.757812 57.597656 252.21875 58.042969 251.636719 58.429688 C 251.054688 58.820312 250.441406 59.148438 249.796875 59.414062 C 249.148438 59.683594 248.480469 59.886719 247.796875 60.023438 C 247.109375 60.160156 246.414062 60.226562 245.714844 60.226562 C 245.015625 60.226562 244.320312 60.160156 243.636719 60.023438 C 242.949219 59.886719 242.28125 59.683594 241.636719 59.414062 C 240.988281 59.148438 240.375 58.820312 239.792969 58.429688 C 239.210938 58.042969 238.671875 57.597656 238.175781 57.105469 C 237.679688 56.609375 237.238281 56.070312 236.851562 55.488281 C 236.460938 54.90625 236.132812 54.292969 235.863281 53.644531 C 235.597656 53 235.394531 52.332031 235.257812 51.644531 C 235.121094 50.960938 235.054688 50.265625 235.054688 49.566406 C 235.054688 48.867188 235.121094 48.171875 235.257812 47.484375 C 235.394531 46.800781 235.597656 46.132812 235.863281 45.484375 C 236.132812 44.839844 236.460938 44.226562 236.851562 43.644531 C 237.238281 43.0625 237.679688 42.523438 238.175781 42.027344 C 238.671875 41.53125 239.210938 41.089844 239.792969 40.703125 C 240.375 40.3125 240.988281 39.984375 241.636719 39.714844 C 242.28125 39.449219 242.949219 39.246094 243.636719 39.109375 C 244.320312 38.972656 245.015625 38.90625 245.714844 38.90625 C 246.414062 38.90625 247.109375 38.972656 247.796875 39.109375 C 248.480469 39.246094 249.148438 39.449219 249.796875 39.714844 C 250.441406 39.984375 251.054688 40.3125 251.636719 40.703125 C 252.21875 41.089844 252.757812 41.53125 253.253906 42.027344 C 253.75 42.523438 254.191406 43.0625 254.578125 43.644531 C 254.96875 44.226562 255.296875 44.839844 255.566406 45.484375 C 255.832031 46.132812 256.035156 46.800781 256.171875 47.484375 C 256.308594 48.171875 256.375 48.867188 256.375 49.566406 Z M 256.375 49.566406 " fill-opacity="1" fill-rule="nonzero"/><path fill="#ffffff" d="M 248.070312 46.296875 C 248.070312 46.609375 248.011719 46.910156 247.890625 47.199219 C 247.773438 47.488281 247.601562 47.742188 247.382812 47.964844 C 247.160156 48.183594 246.90625 48.355469 246.617188 48.476562 C 246.328125 48.59375 246.027344 48.652344 245.714844 48.652344 C 245.402344 48.652344 245.101562 48.59375 244.8125 48.476562 C 244.523438 48.355469 244.269531 48.183594 244.046875 47.964844 C 243.828125 47.742188 243.65625 47.488281 243.539062 47.199219 C 243.417969 46.910156 243.359375 46.609375 243.359375 46.296875 C 243.359375 45.984375 243.417969 45.683594 243.539062 45.394531 C 243.65625 45.105469 243.828125 44.851562 244.046875 44.632812 C 244.269531 44.410156 244.523438 44.238281 244.8125 44.121094 C 245.101562 44 245.402344 43.941406 245.714844 43.941406 C 246.027344 43.941406 246.328125 44 246.617188 44.121094 C 246.90625 44.238281 247.160156 44.410156 247.382812 44.632812 C 247.601562 44.851562 247.773438 45.105469 247.890625 45.394531 C 248.011719 45.683594 248.070312 45.984375 248.070312 46.296875 Z M 248.070312 46.296875 " fill-opacity="1" fill-rule="nonzero"/><path fill="#ffffff" d="M 251.257812 55.191406 L 240.171875 55.191406 C 240.324219 52.25 242.746094 49.902344 245.714844 49.902344 C 248.695312 49.902344 251.117188 52.25 251.257812 55.191406 Z M 251.257812 55.191406 " fill-opacity="1" fill-rule="nonzero"/><g clip-path="url(#a2136aebd7)"><path fill="#f9dae0" d="M 105.308594 40.71875 C 105.089844 40.71875 104.867188 40.632812 104.695312 40.464844 C 104.359375 40.125 104.359375 39.578125 104.695312 39.238281 C 108.515625 35.417969 113.589844 33.316406 118.988281 33.316406 C 124.378906 33.316406 129.449219 35.414062 133.265625 39.226562 C 133.605469 39.566406 133.605469 40.113281 133.265625 40.453125 C 132.925781 40.792969 132.378906 40.792969 132.039062 40.453125 C 128.550781 36.96875 123.917969 35.050781 118.988281 35.050781 C 114.054688 35.050781 109.414062 36.972656 105.921875 40.464844 C 105.753906 40.632812 105.53125 40.71875 105.308594 40.71875 Z M 105.308594 40.71875 " fill-opacity="1" fill-rule="nonzero"/></g><path fill="#f9dae0" d="M 108.917969 44.324219 C 108.695312 44.324219 108.472656 44.238281 108.304688 44.066406 C 107.964844 43.730469 107.964844 43.179688 108.304688 42.839844 C 111.160156 39.988281 114.953125 38.414062 118.988281 38.414062 C 123.019531 38.414062 126.808594 39.984375 129.660156 42.835938 C 130 43.171875 130 43.722656 129.660156 44.0625 C 129.320312 44.398438 128.773438 44.398438 128.433594 44.0625 C 125.910156 41.539062 122.554688 40.148438 118.988281 40.148438 C 115.417969 40.148438 112.058594 41.542969 109.53125 44.066406 C 109.363281 44.238281 109.140625 44.324219 108.917969 44.324219 Z M 108.917969 44.324219 " fill-opacity="1" fill-rule="nonzero"/><path fill="#f9dae0" d="M 112.523438 47.925781 C 112.300781 47.925781 112.078125 47.84375 111.910156 47.671875 C 111.570312 47.335938 111.570312 46.785156 111.910156 46.445312 C 113.800781 44.554688 116.316406 43.515625 118.988281 43.515625 C 121.65625 43.515625 124.167969 44.554688 126.054688 46.441406 C 126.394531 46.78125 126.394531 47.328125 126.054688 47.667969 C 125.71875 48.007812 125.167969 48.007812 124.828125 47.667969 C 123.269531 46.109375 121.195312 45.25 118.988281 45.25 C 116.777344 45.25 114.699219 46.109375 113.136719 47.671875 C 112.96875 47.84375 112.746094 47.925781 112.523438 47.925781 Z M 112.523438 47.925781 " fill-opacity="1" fill-rule="nonzero"/><path fill="#f9dae0" d="M 121.246094 54.386719 C 120.003906 55.640625 117.96875 55.640625 116.726562 54.386719 C 115.472656 53.140625 115.472656 51.109375 116.726562 49.863281 C 117.96875 48.609375 120.003906 48.609375 121.246094 49.863281 C 122.503906 51.109375 122.503906 53.140625 121.246094 54.386719 Z M 121.246094 54.386719 " fill-opacity="1" fill-rule="nonzero"/><path fill="#f9dae0" d="M 368.144531 225.042969 C 368.144531 233.277344 358.46875 242.285156 358.46875 242.285156 C 358.46875 242.285156 348.789062 233.277344 348.789062 225.042969 C 348.789062 219.695312 353.121094 215.363281 358.46875 215.363281 C 363.8125 215.363281 368.144531 219.695312 368.144531 225.042969 Z M 368.144531 225.042969 " fill-opacity="1" fill-rule="nonzero"/><path fill="#ffffff" d="M 363.820312 225.042969 C 363.820312 225.394531 363.785156 225.742188 363.71875 226.085938 C 363.648438 226.429688 363.546875 226.765625 363.414062 227.089844 C 363.277344 227.414062 363.113281 227.722656 362.917969 228.015625 C 362.722656 228.308594 362.5 228.578125 362.253906 228.828125 C 362.003906 229.074219 361.734375 229.296875 361.441406 229.492188 C 361.148438 229.6875 360.839844 229.851562 360.515625 229.988281 C 360.191406 230.121094 359.855469 230.222656 359.511719 230.292969 C 359.167969 230.359375 358.820312 230.394531 358.46875 230.394531 C 358.117188 230.394531 357.769531 230.359375 357.421875 230.292969 C 357.078125 230.222656 356.742188 230.121094 356.417969 229.988281 C 356.09375 229.851562 355.785156 229.6875 355.492188 229.492188 C 355.203125 229.296875 354.929688 229.074219 354.683594 228.828125 C 354.433594 228.578125 354.210938 228.308594 354.015625 228.015625 C 353.820312 227.722656 353.65625 227.414062 353.523438 227.089844 C 353.386719 226.765625 353.285156 226.429688 353.21875 226.085938 C 353.148438 225.742188 353.113281 225.394531 353.113281 225.042969 C 353.113281 224.691406 353.148438 224.34375 353.21875 223.996094 C 353.285156 223.652344 353.386719 223.316406 353.523438 222.992188 C 353.65625 222.667969 353.820312 222.359375 354.015625 222.066406 C 354.210938 221.777344 354.433594 221.503906 354.683594 221.257812 C 354.929688 221.007812 355.203125 220.785156 355.492188 220.589844 C 355.785156 220.394531 356.09375 220.230469 356.417969 220.097656 C 356.742188 219.960938 357.078125 219.859375 357.421875 219.792969 C 357.769531 219.722656 358.117188 219.6875 358.46875 219.6875 C 358.820312 219.6875 359.167969 219.722656 359.511719 219.792969 C 359.855469 219.859375 360.191406 219.960938 360.515625 220.097656 C 360.839844 220.230469 361.148438 220.394531 361.441406 220.589844 C 361.734375 220.785156 362.003906 221.007812 362.253906 221.257812 C 362.5 221.503906 362.722656 221.777344 362.917969 222.066406 C 363.113281 222.359375 363.277344 222.667969 363.414062 222.992188 C 363.546875 223.316406 363.648438 223.652344 363.71875 223.996094 C 363.785156 224.34375 363.820312 224.691406 363.820312 225.042969 Z M 363.820312 225.042969 " fill-opacity="1" fill-rule="nonzero"/></svg>