<svg xmlns="http://www.w3.org/2000/svg" xmlns:xlink="http://www.w3.org/1999/xlink" width="500" zoomAndPan="magnify" viewBox="0 0 375 374.999991" height="500" preserveAspectRatio="xMidYMid meet" version="1.0"><defs><clipPath id="3d6eee110c"><path d="M 0 0 L 375 0 L 375 276.75 L 0 276.75 Z M 0 0 " clip-rule="nonzero"/></clipPath></defs><g clip-path="url(#3d6eee110c)"><path fill="#ffffff" d="M 62.601562 0 C 28.234375 0 0.152344 28.085938 0.152344 62.449219 L 0.152344 214.113281 C 0.152344 248.480469 28.234375 276.5625 62.601562 276.5625 L 312.398438 276.5625 C 346.765625 276.5625 374.847656 248.480469 374.847656 214.113281 L 374.847656 62.449219 C 374.847656 28.085938 346.765625 0 312.398438 0 Z M 62.601562 26.765625 L 312.398438 26.765625 C 332.398438 26.765625 348.085938 42.449219 348.085938 62.449219 L 348.085938 214.113281 C 348.085938 234.113281 332.398438 249.800781 312.398438 249.800781 L 62.601562 249.800781 C 42.601562 249.800781 26.914062 234.113281 26.914062 214.113281 L 26.914062 62.449219 C 26.914062 42.449219 42.601562 26.765625 62.601562 26.765625 Z M 156.695312 66.910156 C 155.796875 66.882812 154.90625 66.945312 154.023438 67.097656 C 153.140625 67.246094 152.28125 67.484375 151.445312 67.808594 C 150.609375 68.132812 149.8125 68.535156 149.058594 69.019531 C 148.304688 69.503906 147.605469 70.054688 146.960938 70.679688 C 146.316406 71.304688 145.742188 71.988281 145.234375 72.726562 C 144.726562 73.464844 144.300781 74.25 143.949219 75.074219 C 143.601562 75.898438 143.335938 76.753906 143.160156 77.632812 C 142.980469 78.507812 142.894531 79.398438 142.894531 80.292969 L 142.894531 196.269531 C 142.890625 197.09375 142.960938 197.910156 143.105469 198.71875 C 143.253906 199.53125 143.472656 200.320312 143.761719 201.089844 C 144.054688 201.859375 144.414062 202.59375 144.84375 203.296875 C 145.269531 204 145.757812 204.660156 146.308594 205.273438 C 146.855469 205.886719 147.457031 206.441406 148.109375 206.945312 C 148.761719 207.449219 149.453125 207.886719 150.1875 208.261719 C 150.917969 208.636719 151.679688 208.9375 152.46875 209.171875 C 153.257812 209.40625 154.0625 209.566406 154.882812 209.652344 C 157.640625 209.953125 160.246094 209.441406 162.6875 208.121094 L 269.742188 150.128906 C 270.804688 149.558594 271.773438 148.851562 272.644531 148.019531 C 273.519531 147.183594 274.265625 146.246094 274.882812 145.210938 C 275.5 144.171875 275.972656 143.074219 276.292969 141.910156 C 276.613281 140.746094 276.773438 139.558594 276.773438 138.351562 C 276.773438 137.144531 276.613281 135.957031 276.292969 134.792969 C 275.972656 133.628906 275.5 132.53125 274.882812 131.492188 C 274.265625 130.457031 273.519531 129.519531 272.644531 128.683594 C 271.773438 127.851562 270.804688 127.144531 269.742188 126.574219 L 162.6875 68.582031 C 160.824219 67.546875 158.824219 66.992188 156.695312 66.910156 Z M 169.65625 102.875 L 235.171875 138.28125 L 169.65625 173.828125 Z M 169.65625 102.875 " fill-opacity="1" fill-rule="nonzero"/></g></svg>